<svg width="124" height="48" viewBox="0 0 124 48" fill="none" xmlns="http://www.w3.org/2000/svg">
<path d="M0 24.4337C0 24.1459 0 23.857 0 23.5692C0.0558407 23.5381 0.103091 23.5488 0.142824 23.5993C0.260948 23.8678 0.260948 24.1352 0.143897 24.4036C0.104164 24.4541 0.0569146 24.4638 0 24.4337Z" fill="white"/>
<path d="M22.6605 0.989258C22.916 0.989258 23.1727 0.989258 23.4283 0.989258C23.4594 1.04402 23.4498 1.09127 23.4004 1.12993C23.163 1.24161 22.9257 1.24162 22.6884 1.13101C22.639 1.09235 22.6293 1.0451 22.6605 0.989258Z" fill="#FBF2D6"/>
<path d="M0 24.4336C0.0289942 24.4357 0.0569149 24.4357 0.0859092 24.4368C0.253431 24.6011 0.23088 24.7869 0.143897 24.978C0.105238 25.0296 0.0569146 25.0403 0 25.0103C0 24.818 0 24.6258 0 24.4336Z" fill="white"/>
<path d="M0 25.0103C0.0279204 25.0135 0.0547673 25.0146 0.0826877 25.0146C0.235176 25.1746 0.235176 25.3346 0.0826877 25.4956C0.0547673 25.4956 0.0268465 25.4946 0 25.4913C0 25.3303 0 25.1703 0 25.0103Z" fill="white"/>
<path d="M0 22.6083C0.0279204 22.6051 0.0558406 22.604 0.083761 22.604C0.233028 22.7393 0.217994 22.895 0.142824 23.0582C0.104165 23.1098 0.0569157 23.1195 0.00107491 23.0883C1.04872e-06 22.9283 0 22.7683 0 22.6083Z" fill="white"/>
<path d="M22.6609 0.989258C22.6609 1.0161 22.6598 1.04295 22.6587 1.0698C22.4987 1.22443 22.3387 1.22443 22.1787 1.0698C22.1798 1.04295 22.1809 1.0161 22.1809 0.989258C22.3409 0.989258 22.5009 0.989258 22.6609 0.989258Z" fill="#FCF7E8"/>
<path d="M0 23.0882C0.0279204 23.086 0.0547674 23.085 0.0826877 23.085C0.235176 23.2439 0.233027 23.4039 0.0869824 23.566C0.0579882 23.5671 0.0289942 23.5671 0 23.5693C0 23.4082 0 23.2482 0 23.0882Z" fill="white"/>
<path d="M23.4319 1.07077C23.4309 1.04393 23.4298 1.01708 23.4287 0.990234C23.5887 0.990234 23.7487 0.990234 23.9087 0.990234C23.9087 1.01708 23.9098 1.04393 23.9109 1.07077C23.7509 1.22434 23.5919 1.22434 23.4319 1.07077Z" fill="#FCF9ED"/>
<path d="M45.0615 30.5395C43.5763 35.5008 40.7402 39.5181 36.5865 42.5958C33.554 44.8423 30.1573 46.2974 26.4203 46.7774C18.1902 47.8351 11.2338 45.2912 5.66688 39.1025C3.47728 36.6691 1.97065 33.8331 1.01384 30.7038C0.981626 30.5975 0.962296 30.4869 0.936523 30.3774C1.0976 30.0606 1.40043 30.1476 1.65279 30.1465C3.77474 30.1358 5.89668 30.1411 8.01863 30.1411C8.87128 30.1411 8.8702 30.1401 8.87235 29.3046C8.8745 28.5228 8.86269 27.74 8.8788 26.9582C8.88417 26.6844 8.8949 26.3977 9.25787 26.3321C9.3513 26.3193 9.44472 26.3171 9.53815 26.3171C11.5581 26.3053 13.578 26.2785 15.5969 26.3128C15.6881 26.315 15.7805 26.316 15.8718 26.3139C16.2219 26.2881 16.573 26.3064 16.9242 26.3032C18.0829 26.2924 17.9916 26.417 17.9959 25.2057C17.9991 24.295 17.9927 23.3855 17.998 22.4748C18.0023 21.6791 18.0839 21.6007 18.8775 21.5953C19.0687 21.5943 19.2609 21.5846 19.452 21.6061C19.5433 21.6082 19.6346 21.6082 19.7259 21.6093C21.7254 21.6136 23.726 21.6093 25.7255 21.6104C25.7867 21.6093 25.8469 21.6093 25.9081 21.6104C25.9983 21.6093 26.0896 21.6104 26.1798 21.6072C26.4837 21.5857 26.7876 21.5878 27.0904 21.6029C27.5683 21.6254 27.6853 21.7328 27.6993 22.2128C27.724 23.0601 27.7046 23.9084 27.7089 24.7568C27.71 25.109 27.7154 25.4612 27.7089 25.8124C27.7025 26.1517 27.8432 26.3096 28.1922 26.3053C28.6078 26.2999 29.0233 26.2881 29.4389 26.315C29.5302 26.3171 29.6215 26.3171 29.7117 26.3139C31.7123 26.2913 33.714 26.2978 35.7146 26.3096C35.7758 26.3128 35.837 26.316 35.8982 26.3171C35.9906 26.3171 36.0818 26.3171 36.1742 26.3139C36.9216 26.3096 37.015 26.3944 37.0215 27.1193C37.029 27.9193 37.0193 28.7183 37.0247 29.5183C37.029 30.1025 37.0655 30.1422 37.6561 30.1433C39.8457 30.1476 42.0353 30.1444 44.2238 30.1454C44.415 30.1454 44.6072 30.139 44.7973 30.1766C45.0013 30.2131 45.1194 30.3129 45.0615 30.5395Z" fill="white"/>
<path d="M45.0617 30.5398C45.037 30.1779 44.7545 30.3282 44.587 30.3272C42.2041 30.3175 39.8212 30.3078 37.4383 30.3315C36.9894 30.3357 36.8713 30.2058 36.8864 29.7698C36.9196 28.8592 36.8767 27.9453 36.9046 27.0336C36.9175 26.6159 36.8305 26.3893 36.3623 26.472C36.271 26.4881 36.1722 26.4623 36.0767 26.457C35.9188 26.2261 35.9714 25.9619 35.9714 25.7106C35.9682 21.6622 35.9746 17.6126 35.9639 13.5642C35.9618 12.7824 35.9124 11.9942 35.6665 11.2457C35.1628 9.7144 34.3209 8.49342 32.6339 8.09073C32.4266 8.04133 32.2215 8.04347 32.0153 8.0424C30.0802 8.04025 28.1451 8.0671 26.21 8.03274C24.9042 8.00911 23.956 8.6051 23.1807 9.58017C23.1506 9.61775 23.1281 9.66071 23.1001 9.69937C22.7361 10.1955 22.6115 10.1976 22.2582 9.71225C22.0134 9.37721 21.7589 9.05935 21.4238 8.79732C20.7774 8.29261 20.0611 8.04992 19.2482 8.05207C17.4087 8.05529 15.5649 8.1412 13.7318 8.02844C11.7612 7.90709 10.2943 9.48567 9.80896 10.8452C9.56627 11.5271 9.43526 12.2208 9.43848 12.9553C9.45351 17.2121 9.44707 21.4689 9.44278 25.7257C9.44278 25.9727 9.5158 26.2454 9.29029 26.4494C9.01108 26.4516 9.0186 26.6417 9.01968 26.8446C9.02504 27.7875 9.02612 28.7303 9.02075 29.6732C9.01538 30.412 9.12599 30.3196 8.34959 30.3207C6.05045 30.325 3.75024 30.3207 1.45111 30.3239C1.27929 30.3239 1.09888 30.281 0.935653 30.3787C0.450268 28.7862 0.204354 27.1517 0.0830078 25.4959C0.0830078 25.3359 0.0830078 25.1748 0.0830078 25.0148C0.0840817 24.8225 0.0851554 24.6293 0.0862293 24.437C0.0862293 24.1471 0.0873025 23.8561 0.0873025 23.5661C0.0862287 23.4061 0.0840817 23.2461 0.0830078 23.085C0.0830078 22.924 0.0830072 22.764 0.0840811 22.6029C0.444898 17.4806 2.25435 12.9424 5.61661 9.05398C9.3268 4.76283 14.0174 2.20919 19.6058 1.30929C20.4541 1.17291 21.3207 1.14714 22.1788 1.06982C22.3388 1.06982 22.4988 1.06982 22.6588 1.06982C22.9165 1.06982 23.1742 1.06982 23.432 1.06982C23.592 1.06982 23.7509 1.06982 23.9109 1.06982C28.987 1.31359 33.5391 2.98237 37.4823 6.19429C41.5598 9.51681 44.2101 13.7639 45.4064 18.8959C46.2751 22.6254 46.1795 26.3464 45.1937 30.0426C45.1497 30.208 45.197 30.4002 45.0617 30.5398Z" fill="black"/>
<path d="M20.7655 36.6812C20.7655 36.009 20.7526 35.3367 20.772 34.6645C20.7795 34.3874 20.686 34.3155 20.4197 34.3209C19.5886 34.3359 18.7563 34.3176 17.9241 34.3316C17.6642 34.3359 17.5633 34.2768 17.5676 33.9923C17.5837 32.9678 17.5826 31.9433 17.5676 30.9189C17.5633 30.6483 17.6406 30.5645 17.9133 30.5709C18.6973 30.5881 19.4822 30.5441 20.264 30.5892C20.7183 30.616 20.7881 30.4475 20.773 30.0512C20.744 29.2684 20.7773 28.4823 20.758 27.6984C20.7505 27.4009 20.8439 27.3171 21.1381 27.3214C22.386 27.3365 23.6338 27.3365 24.8816 27.3214C25.1705 27.3182 25.2693 27.3848 25.2618 27.6898C25.2403 28.5381 25.265 29.3865 25.2478 30.2348C25.2424 30.5076 25.3208 30.5892 25.5957 30.5838C26.4108 30.5667 27.2269 30.5892 28.0431 30.572C28.3384 30.5656 28.4597 30.6236 28.4522 30.9575C28.4286 31.9659 28.435 32.9742 28.4501 33.9826C28.4543 34.2532 28.377 34.3391 28.1021 34.3338C27.3182 34.3166 26.5332 34.3606 25.7514 34.3155C25.2993 34.2887 25.2371 34.453 25.2457 34.8492C25.2704 36.1131 25.2446 37.3782 25.2618 38.6421C25.2661 38.9524 25.1855 39.0469 24.8677 39.0416C23.6359 39.0222 22.4042 39.0201 21.1725 39.0426C20.8181 39.0491 20.7473 38.9245 20.7591 38.6034C20.7827 37.9623 20.7666 37.3212 20.7655 36.6812Z" fill="black"/>
<path d="M19.4707 21.7189C19.0573 21.7318 18.5118 21.59 18.2637 21.7994C17.9727 22.0454 18.1735 22.6102 18.1671 23.0365C18.1509 24.0438 18.1477 25.0522 18.1692 26.0584C18.1767 26.402 18.0629 26.4987 17.7343 26.4815C17.1125 26.4503 16.4897 26.4557 15.8668 26.446C15.6811 26.2893 15.7079 26.0723 15.7079 25.8672C15.7047 21.5159 15.7036 17.1647 15.7079 12.8134C15.709 12.1809 15.8024 12.0896 16.4306 12.0885C17.294 12.0864 18.1574 12.0896 19.0208 12.0993C19.519 12.1046 19.62 12.2002 19.6221 12.692C19.6318 15.5399 19.6286 18.3867 19.6243 21.2346C19.6243 21.4096 19.6286 21.5911 19.4707 21.7189Z" fill="black"/>
<path d="M29.4727 26.4505C28.9787 26.459 28.4837 26.4505 27.9908 26.4805C27.66 26.5009 27.5526 26.3957 27.558 26.0553C27.5763 24.7623 27.5537 23.4683 27.5731 22.1743C27.5784 21.8307 27.5065 21.6761 27.1306 21.7137C26.7988 21.7469 26.4605 21.7201 26.1255 21.7201C25.9644 21.5708 25.9837 21.3711 25.9837 21.1821C25.9805 18.3836 25.9784 15.5862 25.9837 12.7877C25.9848 12.1788 26.0686 12.1005 26.6817 12.0951C27.4324 12.0886 28.1841 12.0876 28.9347 12.0951C29.5157 12.1015 29.6059 12.1874 29.6102 12.763C29.6198 14.0098 29.6134 15.2576 29.6134 16.5044C29.6134 19.5745 29.6145 22.6447 29.6112 25.7138C29.6112 25.9672 29.6649 26.2335 29.4727 26.4505Z" fill="black"/>
<path d="M9.29132 26.4471C9.29132 22.0282 9.29561 17.6093 9.28809 13.1903C9.28595 11.557 9.70475 10.0912 10.9096 8.92495C11.5765 8.27956 12.3615 7.88974 13.3118 7.88974C15.2953 7.89082 17.2798 7.88867 19.2632 7.88867C20.4713 7.88867 21.4066 8.43849 22.1562 9.34697C22.3366 9.56497 22.4923 9.80444 22.6791 10.06C22.9379 9.71746 23.1441 9.37919 23.419 9.09139C24.1761 8.29996 25.0771 7.87471 26.1874 7.8833C28.027 7.89726 29.8676 7.91122 31.7071 7.88008C33.5219 7.85001 34.657 8.81112 35.4506 10.3199C35.9316 11.2359 36.0713 12.2335 36.0745 13.2462C36.0852 17.649 36.0777 22.0518 36.0777 26.4546C36.0251 26.4525 35.9725 26.4514 35.9198 26.4493C35.7212 26.2345 35.777 25.9671 35.777 25.7169C35.7738 21.7629 35.7738 17.809 35.7759 13.855C35.7759 13.5662 35.7652 13.2795 35.7201 12.9949C35.69 12.8263 35.6761 12.6566 35.6825 12.4848C35.689 12.2561 35.66 12.0316 35.603 11.8104C35.5773 11.6472 35.5225 11.4904 35.5032 11.3261C35.486 11.0791 35.3335 10.8815 35.2551 10.6571C35.21 10.5186 35.1348 10.3951 35.0618 10.2716C34.9824 10.1094 34.8836 9.95907 34.7848 9.80766C34.7332 9.72282 34.672 9.64551 34.6011 9.57571C34.5152 9.48765 34.4379 9.39208 34.3681 9.29006C34.2607 9.12898 34.1179 9.00978 33.9461 8.9228C33.7302 8.80253 33.5305 8.65648 33.3157 8.53406C32.8937 8.32573 32.4416 8.25056 31.9766 8.23123C30.1521 8.24197 28.3287 8.2366 26.5053 8.24305C25.5904 8.24627 24.7248 8.43204 23.9914 9.02482C23.7992 9.19986 23.6005 9.36952 23.4287 9.56604C23.2977 9.73464 23.1624 9.89894 23.0453 10.0783C22.953 10.2211 22.9057 10.3908 22.7801 10.5132C22.7403 10.5325 22.6985 10.539 22.6544 10.5314C22.4751 10.4316 22.4064 10.2415 22.2904 10.0901C22.2023 9.94726 22.0831 9.82914 21.9919 9.68954C21.849 9.47906 21.6515 9.31583 21.4936 9.11824C21.3626 8.98616 21.2079 8.88521 21.0533 8.7832C20.8396 8.62212 20.6066 8.55661 20.3349 8.58131C17.3163 8.85622 14.2998 9.14938 11.2855 9.47154C11.0256 9.49946 10.7775 9.54027 10.6079 9.76685C10.4833 9.99236 10.2889 10.1738 10.1869 10.4155C10.1257 10.5572 10.0538 10.6947 10.0054 10.8418C9.94637 11.0265 9.83791 11.194 9.81751 11.3927C9.80032 11.5248 9.76704 11.6526 9.73589 11.7814C9.72301 11.8705 9.71012 11.9597 9.69294 12.0488C9.67683 12.1401 9.64462 12.2271 9.64032 12.3205C9.62636 12.4891 9.62958 12.6577 9.63495 12.8263C9.63925 12.9541 9.63602 13.0819 9.63602 13.2097C9.64676 13.3954 9.63173 13.5812 9.64032 13.767C9.64569 13.9291 9.64139 14.0913 9.63817 14.2534C9.64462 14.4714 9.64462 14.6884 9.63817 14.9063C9.64139 15.0696 9.64462 15.2317 9.63817 15.395C9.64139 15.584 9.64354 15.773 9.6371 15.962C9.64032 16.0973 9.64247 16.2315 9.6371 16.3668C9.64247 16.5558 9.64139 16.7448 9.6371 16.9338C9.64247 17.097 9.64139 17.2603 9.6371 17.4224C9.64676 17.6136 9.63925 17.8058 9.6371 17.9969C9.64569 18.2171 9.64354 18.4361 9.63817 18.6563C9.64247 18.8474 9.64569 19.0396 9.6371 19.2308C9.64032 19.4209 9.64354 19.6109 9.63602 19.801C9.63817 19.9352 9.64247 20.0705 9.63602 20.2048C9.63925 20.3916 9.64032 20.5785 9.63495 20.7653C9.6371 20.8985 9.64032 21.0317 9.63495 21.1648C9.63925 21.3237 9.63925 21.4837 9.63495 21.6427C9.63817 21.8016 9.63925 21.9616 9.63495 22.1205C9.63817 22.2795 9.64032 22.4395 9.63495 22.5984C9.63925 22.7316 9.63925 22.8647 9.63495 22.9979C9.64032 23.1847 9.63925 23.3716 9.63495 23.5584C9.63817 23.7184 9.64032 23.8774 9.63388 24.0374C9.63603 24.1963 9.63817 24.3542 9.6328 24.5131C9.63388 24.6441 9.63817 24.7762 9.6328 24.9072C9.63602 25.0382 9.63602 25.1692 9.6328 25.3002C9.6371 25.4581 9.63602 25.6149 9.6328 25.7727C9.63173 25.9585 9.64676 26.1464 9.58555 26.3279C9.55978 26.3763 9.52649 26.4181 9.48568 26.4536C9.42447 26.4514 9.35789 26.4493 9.29132 26.4471Z" fill="white"/>
<path d="M35.334 10.5984C35.4285 10.8228 35.5917 11.0172 35.6186 11.2696C34.6521 11.4768 33.6631 11.4811 32.6869 11.5949C31.772 11.7013 30.8538 11.7893 29.9368 11.8677C29.7338 11.8849 29.7048 12.0417 29.5824 12.1158C28.5751 12.1576 27.5678 12.1233 26.5616 12.1351C26.0279 12.1415 26.0236 12.1415 26.0225 12.6731C26.0204 15.4888 26.0225 18.3055 26.0193 21.1212C26.0193 21.3241 26.073 21.54 25.9302 21.7236C25.8958 21.7236 25.8615 21.7247 25.8271 21.7247C25.7874 21.6849 25.7573 21.6388 25.7358 21.5861C25.6596 21.2318 25.7025 20.8731 25.6961 20.5166C25.6907 20.3813 25.6896 20.2449 25.6961 20.1096C25.6896 19.9206 25.695 19.7327 25.6972 19.5437C25.6886 19.3826 25.6961 19.2215 25.6972 19.0604C25.6907 18.8993 25.6929 18.7393 25.6972 18.5783C25.6929 18.4183 25.6929 18.2572 25.6972 18.0972C25.6929 17.9372 25.6918 17.7761 25.6972 17.6161C25.6929 17.455 25.6929 17.2939 25.6972 17.1339C25.6918 16.9718 25.6929 16.8096 25.6961 16.6475C25.6875 16.4832 25.6929 16.3199 25.695 16.1556C25.6864 15.9065 25.6875 15.6584 25.6939 15.4093C25.6864 15.1881 25.6896 14.9658 25.695 14.7446C25.6875 14.5792 25.6886 14.4138 25.6939 14.2474C25.6886 14.0272 25.6875 13.8071 25.6939 13.587C25.6896 13.4227 25.6875 13.2584 25.6939 13.0941C25.6875 12.9051 25.6896 12.7161 25.6886 12.5281C25.6445 12.1834 25.375 12.2564 25.1688 12.2726C24.023 12.3649 22.8826 12.5131 21.7368 12.5979C21.0409 12.6495 20.3547 12.7998 19.6545 12.7998C19.5643 12.6344 19.5762 12.468 19.6427 12.2994C19.8511 12.0481 20.1582 12.0524 20.4352 12.0256C22.5153 11.828 24.5943 11.6153 26.6733 11.4124C28.8167 11.203 30.9591 10.9882 33.1014 10.7777C33.8435 10.7079 34.5844 10.592 35.334 10.5984Z" fill="white"/>
<path d="M13.2045 39.7575C13.6748 40.5447 14.0936 41.2459 14.535 41.9847C14.9506 41.2416 15.3382 40.55 15.786 39.75C16.0384 40.9753 16.2682 42.0846 16.4969 43.1939C15.7753 43.3689 15.771 43.3646 15.6421 42.6645C15.5959 42.4132 15.5401 42.164 15.4843 41.9138C15.4789 41.8891 15.4477 41.8698 15.4059 41.8204C15.1149 42.2983 14.8303 42.7675 14.5156 43.2851C14.1817 42.7665 13.8745 42.2918 13.5094 41.7238C13.4332 42.1125 13.3773 42.3992 13.3204 42.6849C13.1948 43.3184 13.1948 43.3184 12.5 43.2207C12.7266 42.1028 12.9542 40.9849 13.2045 39.7575Z" fill="black"/>
<path d="M19.781 41.5564C19.781 41.1086 19.796 40.6597 19.7756 40.213C19.7627 39.9531 19.854 39.8876 20.101 39.8962C20.5627 39.9134 21.0266 39.8823 21.482 40.0025C22.2831 40.2141 22.7599 40.8026 22.7577 41.5854C22.7556 42.3382 22.2401 42.9685 21.4755 43.1726C20.988 43.3025 20.4919 43.2478 19.9979 43.2682C19.7777 43.2767 19.7788 43.1522 19.7799 42.9954C19.7831 42.5165 19.781 42.0364 19.781 41.5564Z" fill="black"/>
<path d="M16.9961 41.5909C16.9961 41.127 17.0069 40.6631 16.9918 40.1992C16.9843 39.9758 17.0434 39.8899 17.2818 39.8974C17.809 39.9146 18.3374 39.9157 18.8636 39.8985C19.2029 39.8878 19.103 40.1208 19.1041 40.2883C19.1052 40.4558 19.2008 40.6964 18.8625 40.6749C18.5919 40.6577 18.3191 40.6792 18.0474 40.6695C17.8627 40.6631 17.7553 40.6856 17.7564 40.9208C17.7564 41.1742 17.9003 41.1571 18.0646 41.1528C18.1924 41.1495 18.3234 41.171 18.448 41.1485C18.8732 41.0701 18.9624 41.272 18.9258 41.65C18.9065 41.8476 18.8722 41.9431 18.6552 41.9249C18.4652 41.9088 18.2719 41.9292 18.0807 41.9195C17.8842 41.9098 17.7553 41.9206 17.7553 42.1869C17.7553 42.4446 17.8359 42.5262 18.0829 42.5015C18.2729 42.4822 18.4695 42.5219 18.6574 42.4929C19.0493 42.4328 19.1471 42.6036 19.1181 42.9644C19.1009 43.1748 19.0773 43.3059 18.8303 43.2672C18.783 43.2597 18.7347 43.2683 18.6864 43.2661C18.1333 43.2371 17.5771 43.3273 17.0262 43.2146C17.0262 42.6734 17.0262 42.1332 17.0262 41.592C17.0155 41.5909 17.0058 41.5909 16.9961 41.5909Z" fill="black"/>
<path d="M19.6868 12.327C19.6868 12.487 19.6868 12.647 19.6879 12.807C19.8017 12.9112 19.8081 13.0519 19.8146 13.1915C19.8285 13.3826 19.8135 13.5738 19.821 13.7649C19.8307 13.9282 19.8114 14.0914 19.8232 14.2557C19.8275 14.4758 19.8232 14.6949 19.8199 14.914C19.8296 15.0804 19.8242 15.2458 19.821 15.4122C19.8393 15.6635 19.8092 15.9137 19.8253 16.165C19.835 16.4152 19.8167 16.6654 19.8232 16.9156C19.8307 17.1079 19.8081 17.299 19.821 17.4912C19.8253 17.6265 19.8114 17.7618 19.8221 17.8971C19.8264 18.0582 19.8092 18.2204 19.8221 18.3815C19.8264 18.5447 19.8092 18.7068 19.8242 18.8701C19.8296 19.0354 19.8092 19.2008 19.8275 19.3673C19.821 19.7023 19.8124 20.0384 19.8242 20.3735C19.8242 20.6731 19.8135 20.9727 19.8157 21.2734C19.8189 21.3807 19.8092 21.4881 19.7802 21.5923C19.762 21.6428 19.733 21.6879 19.6965 21.7265C19.6224 21.7244 19.5472 21.7233 19.4731 21.7212C19.4785 18.6488 19.4828 15.5765 19.4946 12.5053C19.4956 12.2701 19.4076 12.2046 19.1853 12.2068C18.1941 12.2143 17.2019 12.2186 16.2107 12.2046C15.9229 12.2003 15.851 12.3195 15.8681 12.5762C15.8832 12.7995 15.8714 13.024 15.8714 13.2484C15.8714 17.6491 15.8714 22.0487 15.8703 26.4494C15.8037 26.4515 15.7382 26.4547 15.6716 26.4569C15.4601 26.2464 15.5224 25.9779 15.5181 25.7234C15.5181 25.5581 15.5084 25.3916 15.5202 25.2262C15.5191 25.0652 15.5148 24.9041 15.5224 24.743C15.5213 24.6109 15.517 24.4788 15.5224 24.3457C15.5181 24.2136 15.5191 24.0826 15.5224 23.9505C15.517 23.7916 15.5191 23.6326 15.5213 23.4748C15.5159 23.3148 15.517 23.1558 15.5202 22.9958C15.5159 22.809 15.5159 22.6221 15.5213 22.4353C15.5191 22.3021 15.5148 22.169 15.5213 22.0358C15.517 21.8769 15.517 21.7169 15.5213 21.5579C15.5181 21.399 15.517 21.239 15.5213 21.0801C15.5181 20.9211 15.5159 20.7611 15.5213 20.6022C15.517 20.469 15.517 20.3359 15.5213 20.2027C15.517 20.0159 15.517 19.829 15.5213 19.6422C15.517 19.5079 15.517 19.3726 15.5202 19.2384C15.5138 19.0483 15.5159 18.8582 15.5191 18.6682C15.5127 18.477 15.5138 18.2848 15.5181 18.0937C15.5127 17.8735 15.5116 17.6545 15.5181 17.4343C15.5148 17.2432 15.5105 17.0509 15.5191 16.8598C15.5159 16.6966 15.5127 16.5333 15.5191 16.3712C15.5159 16.1822 15.5138 15.9932 15.5202 15.8042C15.517 15.6689 15.5148 15.5346 15.5202 15.3993C15.5148 15.2103 15.5159 15.0213 15.5202 14.8323C15.5148 14.6691 15.5148 14.5059 15.5191 14.3437C15.5138 14.1257 15.5127 13.9067 15.5191 13.6887C15.5148 13.5233 15.5127 13.359 15.5191 13.1936C15.5116 12.9971 15.5148 12.8006 15.5181 12.603C15.5084 12.4247 15.5148 12.2486 15.5836 12.079C15.6845 11.8878 15.8606 11.8137 16.0582 11.8126C17.218 11.803 18.3745 11.9061 19.5332 11.9383C19.5816 11.9394 19.6213 11.9737 19.6632 11.9952C19.7759 12.0951 19.7534 12.21 19.6868 12.327Z" fill="white"/>
<path d="M25.9293 21.7244C25.9271 18.6693 25.9346 15.6131 25.9131 12.558C25.9099 12.1231 26.0431 12.0178 26.4565 12.0286C27.5272 12.0565 28.5989 12.0393 29.6695 12.0393C29.7382 12.0951 29.7683 12.1703 29.7844 12.2541C29.8156 12.4978 29.8048 12.7427 29.8027 12.9875C29.8059 13.1486 29.8091 13.3097 29.8027 13.4718C29.8059 13.6329 29.808 13.7951 29.8027 13.9561C29.8091 14.0914 29.8059 14.2278 29.8037 14.3631C29.8123 14.5822 29.8091 14.8023 29.8059 15.0214C29.8123 15.2705 29.8134 15.5208 29.8059 15.7699C29.8102 15.9363 29.8134 16.1039 29.8059 16.2703C29.8134 16.4926 29.8123 16.7149 29.8059 16.9372C29.8113 17.1874 29.8134 17.4365 29.8048 17.6867C29.807 17.8521 29.8134 18.0175 29.8048 18.1829C29.8091 18.3751 29.8113 18.5673 29.8048 18.7595C29.8113 18.9249 29.8102 19.0903 29.8059 19.2546C29.8134 19.5026 29.8134 19.7518 29.8059 19.9998C29.8091 20.2189 29.8134 20.438 29.8037 20.657C29.8037 20.7923 29.8113 20.9276 29.8027 21.0619C29.8048 21.2229 29.807 21.383 29.8027 21.544C29.808 21.6783 29.8059 21.8125 29.8037 21.9467C29.8113 22.1368 29.808 22.3258 29.8048 22.5159C29.8123 22.7081 29.8102 22.9003 29.8059 23.0915C29.8134 23.3127 29.8123 23.5339 29.8059 23.7551C29.8113 23.9763 29.8134 24.1986 29.8059 24.4198C29.8102 24.6121 29.8134 24.8054 29.8048 24.9976C29.808 25.1887 29.8113 25.3799 29.8037 25.571C29.8059 25.7353 29.8113 25.8996 29.8005 26.0639C29.8037 26.2078 29.7662 26.3399 29.6706 26.4505C29.6051 26.4505 29.5396 26.4494 29.4741 26.4494C29.4741 21.8769 29.4665 17.3034 29.4848 12.7309C29.487 12.2917 29.3602 12.1982 28.9511 12.2133C28.121 12.2455 27.2898 12.2261 26.4587 12.2208C26.2493 12.2197 26.0946 12.2219 26.0957 12.5129C26.1118 15.582 26.1183 18.6521 26.1258 21.7212C26.0592 21.7223 25.9948 21.7234 25.9293 21.7244Z" fill="white"/>
<path d="M27.3833 40.9131C26.5704 40.4524 25.9873 40.4792 25.6318 40.9485C25.3612 41.3061 25.3806 41.8602 25.6759 42.1878C26.0711 42.627 26.6585 42.6001 27.3983 42.1104C27.5508 42.9846 27.3318 43.2509 26.4555 43.2659C25.7446 43.2777 25.0799 42.8546 24.8211 42.2264C24.5462 41.5606 24.6858 40.796 25.169 40.3171C25.6737 39.8167 26.4576 39.6932 27.1213 39.9434C27.6818 40.1539 27.3361 40.5372 27.3833 40.9131Z" fill="black"/>
<path d="M27.6592 43.2702C28.2391 42.0858 28.7824 40.9732 29.3741 39.7651C29.9626 40.956 30.5189 42.0825 31.0988 43.2563C30.6724 43.2369 30.2364 43.4453 30.0732 42.8826C30.0464 42.7891 29.9594 42.7859 29.8778 42.7859C29.5105 42.7859 29.1433 42.787 28.776 42.7859C28.6879 42.7859 28.6149 42.8138 28.5934 42.903C28.4667 43.4109 28.0694 43.2402 27.6592 43.2702Z" fill="black"/>
<path d="M29.6758 13.9617C29.6758 13.8017 29.6758 13.6417 29.6758 13.4817C30.275 13.1617 30.9451 13.239 31.583 13.1649C32.7803 13.0253 33.983 12.9201 35.1825 12.7966C35.4059 12.774 35.6271 12.7418 35.8183 12.9029C35.9718 13.0661 35.9031 13.2691 35.9042 13.4527C35.9128 17.7857 35.916 22.1188 35.9203 26.4518L35.8763 26.4582H35.8322C35.6035 26.2113 35.6862 25.9074 35.6787 25.6206C35.6733 25.422 35.6733 25.2233 35.6808 25.0246C35.6733 24.8292 35.6744 24.6348 35.6808 24.4394C35.6722 24.245 35.6787 24.0507 35.6808 23.8574C35.669 23.6351 35.6776 23.4139 35.6808 23.1916C35.6722 22.9703 35.6733 22.7491 35.6808 22.5268C35.6776 22.3346 35.6733 22.1424 35.6819 21.9513C35.6797 21.7612 35.6754 21.5722 35.683 21.3821C35.6819 21.2479 35.6765 21.1136 35.683 20.9794C35.6797 20.8183 35.6787 20.6583 35.683 20.4972C35.6754 20.3619 35.6808 20.2266 35.6819 20.0924C35.6733 19.8733 35.6765 19.6543 35.6797 19.4352C35.6733 19.1871 35.6722 18.938 35.6808 18.6899C35.6787 18.5246 35.6722 18.3592 35.6808 18.1949C35.6765 18.0027 35.6754 17.8104 35.6808 17.6182C35.6744 17.4529 35.6765 17.2875 35.6797 17.1221C35.6722 16.8719 35.6722 16.6228 35.6787 16.3725C35.6733 16.1503 35.6711 15.9269 35.6797 15.7046C35.6744 15.5371 35.6733 15.3696 35.6797 15.202C35.6711 14.9508 35.6722 14.6995 35.6787 14.4482C35.6711 14.227 35.6733 14.0068 35.6711 13.7856C35.6164 13.4721 35.3715 13.5451 35.1804 13.5644C33.5438 13.7287 31.9062 13.8887 30.2707 14.0562C30.0613 14.0766 29.854 14.1196 29.6758 13.9617Z" fill="white"/>
<path d="M35.8146 25.5861C35.8199 25.876 35.8264 26.1671 35.8317 26.457C33.7774 26.4549 31.7242 26.4538 29.6699 26.4516C29.6753 26.3238 29.6807 26.195 29.686 26.0672C30.1854 25.7923 30.7459 25.9083 31.2743 25.8427C32.4609 25.6946 33.6529 25.5958 34.8427 25.4744C35.1735 25.4411 35.5128 25.3627 35.8146 25.5861Z" fill="black"/>
<path d="M31.3988 41.5834C31.3988 41.1205 31.4214 40.6566 31.3913 40.1959C31.3688 39.848 31.5792 39.9049 31.7822 39.9028C31.9884 39.9006 32.187 39.8534 32.1742 40.1959C32.1484 40.8488 32.1795 41.505 32.1602 42.1579C32.1527 42.4274 32.23 42.5316 32.5038 42.5015C32.6928 42.4811 32.8904 42.5241 33.0762 42.4918C33.5025 42.4188 33.524 42.654 33.5186 42.9794C33.5143 43.2145 33.4402 43.2758 33.2158 43.2704C32.7057 43.2564 32.1946 43.2543 31.6856 43.2704C31.4514 43.2779 31.3859 43.1974 31.3935 42.9719C31.4096 42.509 31.3988 42.0462 31.3988 41.5834Z" fill="black"/>
<path d="M15.6487 25.6825C15.6562 25.9391 15.6627 26.1969 15.6702 26.4535C13.6105 26.4535 11.5509 26.4535 9.49121 26.4535C9.49765 26.4202 9.5041 26.388 9.51054 26.3547C10.0904 25.9198 10.7927 26.0165 11.4456 25.9402C12.6323 25.8006 13.8232 25.7007 15.0119 25.5773C15.2342 25.5536 15.4576 25.516 15.6487 25.6825Z" fill="black"/>
<path d="M23.2367 41.5362C23.2367 41.0895 23.2582 40.6406 23.2303 40.195C23.2088 39.8524 23.415 39.8996 23.6212 39.9018C23.8252 39.9039 24.0228 39.8492 24.0131 40.196C23.9884 41.1217 23.9895 42.0484 24.0121 42.9741C24.0206 43.3156 23.8263 43.2694 23.6201 43.2673C23.4161 43.2651 23.2067 43.321 23.2292 42.973C23.2604 42.4952 23.2367 42.0151 23.2367 41.5362Z" fill="black"/>
<path d="M19.6943 21.7243C19.6943 21.6974 19.6986 21.6717 19.7051 21.6459C19.8844 21.4687 20.1153 21.4956 20.3344 21.4945C21.9537 21.4891 23.5742 21.4902 25.1936 21.4934C25.4148 21.4934 25.6424 21.4805 25.8261 21.6459C25.8272 21.6727 25.8272 21.6985 25.8261 21.7254C23.7825 21.7254 21.7379 21.7243 19.6943 21.7243Z" fill="black"/>
<path d="M18.1487 32.2924C18.1487 31.909 18.168 31.5235 18.1422 31.1412C18.1208 30.8234 18.3173 30.876 18.5074 30.8685C18.706 30.8599 18.8607 30.8738 18.8231 31.1391C18.808 31.2486 18.837 31.3657 18.8177 31.4741C18.75 31.8618 18.9262 31.9198 19.2827 31.9455C19.8024 31.9831 19.9485 31.7963 19.883 31.3152C19.8529 31.0961 19.7938 30.8566 20.2051 30.8545C20.6003 30.8534 20.5509 31.0585 20.5498 31.3012C20.5466 32.0207 20.5348 32.7413 20.5552 33.4597C20.5627 33.7421 20.436 33.7614 20.2137 33.7593C19.9957 33.7582 19.8346 33.7475 19.8733 33.4618C19.8926 33.3201 19.8561 33.1708 19.8808 33.0312C19.9581 32.5834 19.7627 32.4975 19.3417 32.4868C18.8832 32.475 18.7576 32.6317 18.8177 33.0462C18.8381 33.1869 18.8059 33.3351 18.8241 33.4769C18.8574 33.7324 18.7275 33.7743 18.5159 33.7561C18.3355 33.74 18.124 33.8184 18.1433 33.4919C18.1659 33.0935 18.1487 32.6929 18.1487 32.2924Z" fill="white"/>
<path d="M21.7004 29.0254C21.7004 28.642 21.7198 28.2565 21.694 27.8742C21.6725 27.5553 21.8701 27.6101 22.0591 27.6015C22.2588 27.5918 22.4113 27.6079 22.3748 27.8721C22.3598 27.9816 22.3888 28.0987 22.3694 28.2071C22.3018 28.5959 22.479 28.6517 22.8355 28.6775C23.3553 28.7151 23.5002 28.5271 23.4347 28.0471C23.4047 27.828 23.3456 27.5886 23.7579 27.5864C24.1531 27.5854 24.1037 27.7915 24.1027 28.0332C24.0994 28.7526 24.0876 29.4732 24.108 30.1916C24.1155 30.4751 23.9878 30.4923 23.7665 30.4912C23.5475 30.4902 23.3875 30.4794 23.4261 30.1927C23.4455 30.0509 23.4089 29.9017 23.4336 29.7621C23.511 29.3132 23.3144 29.2294 22.8946 29.2176C22.435 29.2047 22.3115 29.3637 22.3705 29.7782C22.3909 29.9189 22.3587 30.067 22.377 30.2088C22.4103 30.4644 22.2792 30.5052 22.0688 30.4869C21.8884 30.4719 21.6768 30.5481 21.6961 30.2228C21.7176 29.8254 21.7004 29.4249 21.7004 29.0254Z" fill="white"/>
<path d="M27.6881 31.7692C26.9622 31.3461 26.5401 31.3536 26.2094 31.7552C25.9484 32.072 25.9527 32.5993 26.2191 32.9064C26.5369 33.2737 27.0073 33.2662 27.6967 32.8828C27.7976 33.6302 27.6065 33.8514 26.8612 33.8493C26.247 33.8482 25.6832 33.4799 25.4631 32.9365C25.2365 32.3738 25.3696 31.6972 25.7863 31.2956C26.233 30.8661 26.9589 30.7565 27.527 31.0068C27.9297 31.1839 27.6462 31.4588 27.6881 31.7692Z" fill="white"/>
<path d="M24.2742 36.9945C24.2742 37.8149 23.9348 38.107 23.1649 37.9621C22.5302 37.8429 22.0932 37.4799 21.9385 36.8377C21.8 36.2621 21.9557 35.7564 22.4078 35.373C22.905 34.952 23.4677 34.908 24.068 35.14C24.4943 35.3053 24.1571 35.5964 24.2817 35.9174C23.9316 35.7553 23.7147 35.5674 23.4183 35.5727C23.1198 35.5792 22.8943 35.6962 22.7203 35.9239C22.4841 36.2332 22.5077 36.7454 22.76 37.0375C23.079 37.4047 23.5493 37.3972 24.2742 36.9945Z" fill="white"/>
<path d="M24.4788 33.8503C24.1041 33.8277 23.7819 33.9727 23.6262 33.5592C23.5714 33.4154 22.4686 33.4014 22.417 33.5442C22.2688 33.9598 21.9617 33.8438 21.6191 33.832C22.0895 32.8484 22.5459 31.8937 23.0484 30.8413C23.5456 31.8862 23.9977 32.8376 24.4788 33.8503Z" fill="white"/>
<path d="M19.6838 12.0391C18.5187 12.081 17.3578 11.9855 16.1959 11.9468C15.9962 11.9404 15.7674 11.8877 15.6504 12.1358C15.5419 12.2614 15.4098 12.342 15.2412 12.3559C13.4683 12.5063 11.7029 12.7404 9.92672 12.8596C9.78497 12.8692 9.63999 12.88 9.50684 12.808C9.50684 12.6158 9.50684 12.4236 9.50684 12.2324C10.0287 11.8727 10.6441 11.9844 11.2186 11.9167C12.3869 11.7793 13.5596 11.6719 14.7312 11.5591C15.8555 11.4517 16.9798 11.3315 18.1052 11.2305C19.2457 11.1285 20.385 11.0039 21.5244 10.8912C22.3158 10.8117 23.1073 10.729 23.9009 10.6582C25.0735 10.5529 26.244 10.4262 27.4145 10.3092C28.1899 10.2318 28.9652 10.1416 29.7427 10.0836C30.9175 9.99559 32.0826 9.81841 33.2574 9.74431C33.7836 9.71102 34.3216 9.46188 34.8521 9.73464C34.9487 9.89465 35.0443 10.0547 35.141 10.2157C35.0432 10.4294 34.8446 10.4305 34.6534 10.4498C30.8444 10.8364 27.0312 11.1951 23.2222 11.5838C22.2063 11.688 21.1894 11.7761 20.1735 11.8845C19.9985 11.9017 19.8213 11.906 19.6838 12.0391Z" fill="white"/>
<path d="M19.6834 12.0393C19.5202 11.8847 19.5084 11.7762 19.7726 11.7526C20.8625 11.656 21.9525 11.5679 23.0414 11.4605C24.1604 11.3499 25.2772 11.2146 26.3951 11.0986C27.1521 11.0202 27.9114 10.9612 28.6684 10.886C29.8669 10.7668 31.0631 10.6379 32.2616 10.5209C33.0347 10.4446 33.809 10.3759 34.5833 10.3136C34.7733 10.2986 34.9677 10.3233 35.1406 10.2148C35.1964 10.3469 35.3468 10.4318 35.3328 10.5993C34.8345 10.9376 34.2471 10.7937 33.7081 10.8677C32.1563 11.0793 30.5928 11.2092 29.0335 11.3585C27.8985 11.468 26.7602 11.5475 25.6251 11.6592C24.5072 11.7687 23.3936 11.9234 22.2747 12.0168C21.5326 12.0791 20.7895 12.1263 20.0518 12.2348C19.9283 12.253 19.808 12.2971 19.6867 12.3282C19.6856 12.2305 19.6845 12.1349 19.6834 12.0393Z" fill="white"/>
<path d="M22.3717 10.0214C22.4684 10.1814 22.5639 10.3414 22.6606 10.5014C22.4995 10.6882 22.2794 10.7076 22.0539 10.7291C20.4882 10.8762 18.9236 11.0351 17.3579 11.1844C15.9189 11.3218 14.4799 11.4711 13.0399 11.6064C12.2184 11.6837 11.3936 11.7374 10.5743 11.8534C10.2511 11.8996 9.90634 11.9704 9.60352 11.7514C9.6658 11.6311 9.71198 11.5065 9.69909 11.3669C9.79788 11.194 9.96326 11.1522 10.1437 11.1317C12.0777 10.9148 14.0182 10.7591 15.9543 10.554C17.81 10.3575 19.6688 10.1825 21.5255 10.002C21.8069 9.97413 22.0936 9.87855 22.3717 10.0214Z" fill="white"/>
<path d="M22.3718 10.0217C21.5944 10.1924 20.7997 10.2182 20.0126 10.3063C18.8152 10.4405 17.6157 10.5597 16.4162 10.6757C15.294 10.7841 14.1697 10.8625 13.0497 10.986C11.9328 11.1095 10.8053 11.1428 9.69922 11.3651C9.76365 11.1729 9.82701 10.9806 9.89144 10.7884C10.6002 10.4899 11.3637 10.5393 12.1036 10.462C14.5788 10.2053 17.0573 9.9755 19.5336 9.71885C20.2166 9.64797 20.9007 9.59858 21.5826 9.52341C21.7651 9.503 21.9316 9.53522 22.0851 9.63509C22.1796 9.76502 22.2763 9.89389 22.3718 10.0217Z" fill="white"/>
<path d="M22.0842 9.63706C20.8729 9.7584 19.6616 9.88297 18.4492 10.0011C17.6771 10.0763 16.9039 10.1375 16.1318 10.2148C14.9516 10.3318 13.7725 10.4661 12.5924 10.5767C11.6935 10.6604 10.7926 10.7206 9.8916 10.7904C9.95496 10.6626 10.0194 10.5337 10.0827 10.4059C10.2535 10.1407 10.5391 10.1235 10.8033 10.0977C12.8812 9.89586 14.9591 9.69075 17.0371 9.48779C18.417 9.35356 19.7969 9.21181 21.1768 9.07435C21.3196 9.06039 21.4614 9.04106 21.6053 9.06039C21.7642 9.25262 21.9242 9.44484 22.0842 9.63706Z" fill="white"/>
<path d="M22.7549 10.5016C22.8193 10.3416 22.8848 10.1816 22.9493 10.0216C23.2456 9.8401 23.5785 9.81325 23.9136 9.78211C26.3867 9.55123 28.8566 9.29136 31.3297 9.0594C32.2145 8.97671 33.0951 8.80382 33.9907 8.86718C34.2334 8.89295 34.3515 9.07229 34.4686 9.25377C34.3558 9.49109 34.1292 9.54264 33.908 9.55982C32.4615 9.6715 31.0193 9.83258 29.576 9.97218C28.1489 10.1096 26.7217 10.2482 25.2956 10.4071C24.5837 10.4866 23.8653 10.5166 23.1544 10.6176C23.0105 10.638 22.8633 10.6229 22.7549 10.5016Z" fill="white"/>
<path d="M21.6035 9.06043C21.1729 9.38796 20.6456 9.26232 20.171 9.32353C18.7277 9.51038 17.2726 9.59307 15.824 9.73696C14.3603 9.88193 12.9009 10.0656 11.4372 10.2009C10.9787 10.2428 10.5202 10.2438 10.082 10.406C10.1121 10.1483 10.3355 10.0194 10.4665 9.82931C10.9712 9.46098 11.5758 9.56837 12.1342 9.5093C14.8972 9.22044 17.6624 8.95949 20.4276 8.68458C20.7047 8.65666 20.9656 8.65129 21.2201 8.77156C21.3479 8.86821 21.4757 8.96486 21.6035 9.06043Z" fill="white"/>
<path d="M34.8531 9.73346C33.6375 9.85588 32.4229 9.98045 31.2073 10.0997C30.4492 10.1737 29.6889 10.235 28.9307 10.3101C27.7312 10.4293 26.5328 10.5603 25.3333 10.6774C24.5429 10.7547 23.7504 10.8084 22.9601 10.8868C21.8078 11.0017 20.6577 11.1327 19.5055 11.2487C18.7312 11.3271 17.9548 11.3851 17.1805 11.4624C15.9971 11.5805 14.8138 11.7083 13.6304 11.8286C12.9195 11.9005 12.2096 11.9896 11.4966 12.0305C10.8297 12.0691 10.1682 12.1411 9.50781 12.2302C9.53895 12.1658 9.5701 12.1024 9.60231 12.038C9.66996 11.9166 9.76983 11.8554 9.91158 11.85C11.0542 11.8049 12.1892 11.6525 13.3265 11.544C14.4304 11.4388 15.5354 11.3314 16.6372 11.1993C17.3921 11.1091 18.1535 11.0543 18.9127 10.9824C19.7804 10.8997 20.648 10.8063 21.5157 10.7225C22.29 10.6473 23.0632 10.5657 23.8385 10.497C24.6911 10.4207 25.5427 10.3348 26.3943 10.2446C27.1513 10.1652 27.9106 10.0975 28.6687 10.0191C29.5514 9.92891 30.4363 9.83763 31.3201 9.76031C32.1104 9.69051 32.8976 9.55735 33.6912 9.54876C34.0155 9.54554 34.3408 9.3007 34.6662 9.53802C34.7553 9.57775 34.8187 9.64111 34.8531 9.73346Z" fill="white"/>
<path d="M34.6645 9.54043C33.4811 9.66285 32.2977 9.7885 31.1132 9.90769C30.354 9.98394 29.5937 10.0441 28.8356 10.1192C27.635 10.2384 26.4366 10.3695 25.236 10.4876C24.4617 10.5638 23.6843 10.6197 22.91 10.697C21.7417 10.813 20.5744 10.9429 19.406 11.0599C18.6318 11.1373 17.8553 11.1963 17.08 11.2726C15.8956 11.3907 14.7132 11.5228 13.5288 11.6388C12.7223 11.7171 11.9115 11.759 11.1072 11.8557C10.6046 11.9158 10.0903 11.8793 9.60059 12.0404C9.60166 11.9448 9.60166 11.8482 9.60273 11.7526C10.9988 11.7139 12.3819 11.5314 13.7693 11.3821C14.8883 11.2618 16.0115 11.1877 17.1316 11.0771C18.2817 10.9633 19.4286 10.8151 20.5797 10.7131C21.2745 10.6519 21.9704 10.61 22.6598 10.5037C22.6909 10.5037 22.7232 10.5037 22.7543 10.5037C23.9678 10.3813 25.1812 10.2578 26.3958 10.1386C27.1539 10.0645 27.9121 10.0022 28.6702 9.92702C29.8686 9.80782 31.066 9.68111 32.2633 9.56084C32.6897 9.51788 33.116 9.46312 33.5434 9.45452C33.8698 9.44808 34.1759 9.39761 34.468 9.25586C34.5346 9.34929 34.599 9.44486 34.6645 9.54043Z" fill="white"/>
<path d="M32.071 8.10059C32.536 8.17039 33.0214 8.16716 33.4155 8.48395C33.3167 8.73094 33.0965 8.78571 32.871 8.80396C30.7888 8.97256 28.7152 9.22921 26.633 9.4064C25.8233 9.47513 25.0136 9.55996 24.205 9.65124C23.9097 9.68453 23.6004 9.76077 23.333 9.54063C23.4554 9.34304 23.6154 9.18304 23.813 9.05954C24.2393 8.78678 24.7322 8.82544 25.2015 8.78034C27.3535 8.57738 29.4991 8.3014 31.6597 8.19508C31.8047 8.18972 31.9475 8.19079 32.071 8.10059Z" fill="white"/>
<path d="M29.6749 13.0004C29.6749 12.7438 29.6749 12.4882 29.6738 12.2315C29.9466 12.021 30.2838 12.0457 30.592 12.021C32.1179 11.8997 33.6364 11.6989 35.1623 11.5851C35.3685 11.57 35.5833 11.5196 35.7154 11.7504C35.7744 11.9706 35.8442 12.1896 35.8099 12.4237C35.1892 12.7416 34.4998 12.6686 33.8415 12.7438C32.6678 12.878 31.4919 13.0004 30.3138 13.0917C30.0926 13.1089 29.8693 13.1701 29.6749 13.0004Z" fill="white"/>
<path d="M23.3326 9.54154C24.6953 9.50074 26.043 9.30744 27.3972 9.17106C28.4989 9.05938 29.6093 9.00891 30.7046 8.85642C31.6078 8.73078 32.5442 8.83709 33.4151 8.48486C33.6266 8.58366 33.8231 8.70393 33.9907 8.86823C33.3431 9.10555 32.6548 9.06367 31.9858 9.14851C30.7605 9.30314 29.5288 9.41053 28.2992 9.52758C27.163 9.63497 26.0248 9.72732 24.8886 9.83148C24.2421 9.89055 23.5957 9.95927 22.9492 10.0226C23.077 9.86155 23.2048 9.70155 23.3326 9.54154Z" fill="white"/>
<path d="M21.2205 8.77237C20.0049 8.89479 18.7904 9.02044 17.5748 9.13856C16.8005 9.21373 16.0241 9.27279 15.2499 9.35011C14.0665 9.46824 12.8831 9.5971 11.6997 9.71844C11.2895 9.76032 10.8771 9.79254 10.4658 9.83013C10.5485 9.4822 10.7772 9.37374 11.1241 9.34152C12.5727 9.20621 14.0192 9.03547 15.4668 8.8862C16.2228 8.80781 16.9809 8.74875 17.738 8.6768C18.6357 8.59089 19.5335 8.50713 20.4291 8.40726C20.7802 8.36645 20.9864 8.58767 21.2205 8.77237Z" fill="white"/>
<path d="M15.6491 17.4193C15.6491 17.6437 15.6491 17.8682 15.6491 18.0915C15.3742 18.3138 15.0349 18.2397 14.7267 18.2741C13.1256 18.4502 11.5244 18.6145 9.919 18.7455C9.77403 18.7573 9.63121 18.7702 9.50879 18.6682C9.50879 18.4438 9.50879 18.2193 9.50879 17.996C9.62691 17.8521 9.78262 17.7855 9.96518 17.7672C11.6318 17.6029 13.2995 17.4504 14.9651 17.2829C15.1992 17.2593 15.4472 17.2453 15.6491 17.4193Z" fill="white"/>
<path d="M15.6502 13.6728C15.6502 13.8972 15.6502 14.1217 15.6502 14.345C15.3753 14.5673 15.0359 14.4932 14.7278 14.5276C13.1266 14.7058 11.5234 14.8573 9.919 14.999C9.77403 15.0119 9.63121 15.0226 9.50879 14.9217C9.50879 14.6973 9.50879 14.4728 9.50879 14.2495C9.6602 14.0873 9.85779 14.0368 10.0693 14.0175C11.6877 13.8682 13.3038 13.7029 14.92 13.5439C15.1702 13.5192 15.4311 13.4892 15.6502 13.6728Z" fill="white"/>
<path d="M32.0705 8.10019C31.7 8.47712 31.1996 8.30745 30.769 8.36866C29.5308 8.54692 28.2808 8.64035 27.0341 8.76169C25.9613 8.86586 24.8864 8.96143 23.8125 9.06023C24.1314 8.65323 24.5749 8.43309 25.0507 8.29993C25.5543 8.15818 26.0741 8.0916 26.6045 8.0959C28.4258 8.10664 30.2481 8.10019 32.0705 8.10019Z" fill="white"/>
<path d="M9.50781 18.6694C11.5524 18.4547 13.5949 18.2055 15.6492 18.0928C15.6492 18.285 15.6492 18.4772 15.6492 18.6694C15.3271 18.896 14.9405 18.8509 14.585 18.8842C13.0601 19.0249 11.5396 19.2182 10.0115 19.3277C9.83534 19.3406 9.6603 19.375 9.50889 19.2461C9.50781 19.0528 9.50781 18.8617 9.50781 18.6694Z" fill="white"/>
<path d="M9.50781 19.2447C11.0016 19.0869 12.4921 18.9032 13.989 18.783C14.541 18.7389 15.0897 18.6101 15.6492 18.6681C15.6492 18.8603 15.6492 19.0525 15.6492 19.2447C15.326 19.4638 14.9437 19.4369 14.585 19.4713C13.0902 19.6141 11.5965 19.7752 10.1017 19.9202C9.89333 19.9406 9.68607 19.9771 9.50889 19.8214C9.50889 19.6292 9.50889 19.4369 9.50781 19.2447Z" fill="white"/>
<path d="M15.648 22.4161C15.648 22.6083 15.648 22.8006 15.648 22.9928C15.0273 23.3117 14.3378 23.2376 13.6796 23.3128C12.5058 23.447 11.3267 23.548 10.1498 23.6607C9.9275 23.6822 9.70306 23.738 9.50977 23.5694C9.50977 23.3772 9.50977 23.185 9.50977 22.9928C10.0714 22.6567 10.7146 22.749 11.3192 22.6771C12.5327 22.5332 13.7515 22.4322 14.9661 22.3023C15.2034 22.2776 15.4439 22.2411 15.648 22.4161Z" fill="white"/>
<path d="M15.6504 14.826C15.6504 15.0182 15.6504 15.2105 15.6504 15.4027C15.3282 15.6389 14.9395 15.5691 14.5851 15.6035C13.0452 15.7538 11.5096 15.9482 9.96537 16.0513C9.80644 16.062 9.64536 16.0921 9.50684 15.9783C9.50684 15.786 9.50684 15.5938 9.50684 15.4016C9.64644 15.2545 9.82362 15.1943 10.0201 15.175C11.6685 15.0161 13.319 14.8754 14.9663 14.6929C15.2015 14.6671 15.4474 14.652 15.6504 14.826Z" fill="white"/>
<path d="M15.6493 15.7862C15.6493 15.9784 15.6493 16.1707 15.6493 16.3629C15.3272 16.5991 14.9384 16.5283 14.583 16.5648C13.0431 16.7237 11.5042 16.8912 9.96215 17.0265C9.80107 17.0405 9.64214 17.0544 9.50684 16.9395C9.50684 16.7473 9.50684 16.5551 9.50684 16.3629C9.6851 16.1717 9.92027 16.1438 10.163 16.1245C11.7029 15.9999 13.2385 15.8313 14.7752 15.6735C15.0737 15.6434 15.3809 15.5768 15.6493 15.7862Z" fill="white"/>
<path d="M15.6492 17.4195C14.2543 17.456 12.8733 17.6418 11.4891 17.7857C10.8287 17.8544 10.1629 17.8694 9.50781 17.9951C9.50781 17.8028 9.50781 17.6106 9.50781 17.4184C9.65923 17.2563 9.85682 17.2058 10.0684 17.1865C11.6856 17.0372 13.3018 16.8718 14.9179 16.7129C15.1692 16.6882 15.4302 16.6581 15.6492 16.8417C15.6492 17.035 15.6492 17.2273 15.6492 17.4195Z" fill="white"/>
<path d="M15.6504 12.6158C15.6504 12.808 15.6504 13.0002 15.6504 13.1925C15.2949 13.4502 14.8761 13.3149 14.4895 13.3675C13.1172 13.5565 11.7351 13.6553 10.3573 13.8035C10.0781 13.8336 9.78604 13.8808 9.50684 13.7681C9.50684 13.5758 9.50684 13.3836 9.50684 13.1914C9.6851 13.0013 9.92027 12.9723 10.163 12.953C11.7029 12.8284 13.2396 12.6598 14.7763 12.502C15.0748 12.4719 15.3809 12.4053 15.6504 12.6158Z" fill="white"/>
<path d="M15.6481 19.6291C15.6481 19.8213 15.6481 20.0136 15.6481 20.2058C15.5354 20.3089 15.3958 20.3325 15.2508 20.3465C13.5047 20.5097 11.7608 20.6955 10.0136 20.849C9.84071 20.8641 9.66245 20.9081 9.50781 20.7825C9.50781 20.5902 9.50781 20.398 9.50889 20.2058C10.1296 19.8869 10.819 19.9609 11.4783 19.8858C12.6521 19.7515 13.829 19.6291 15.0081 19.5368C15.2315 19.5196 15.4549 19.4605 15.6481 19.6291Z" fill="white"/>
<path d="M35.717 11.7505C35.3755 11.5722 35.0276 11.7451 34.6936 11.7687C33.5886 11.8471 32.489 12.006 31.3861 12.1177C30.8181 12.1746 30.2457 12.1961 29.6744 12.2326C29.6733 12.1682 29.6712 12.1038 29.6701 12.0404C29.6143 11.8901 29.3802 12.0146 29.334 11.7988C30.0889 11.7183 30.8342 11.6366 31.5805 11.5604C32.7897 11.438 33.9999 11.3231 35.208 11.1942C35.3616 11.1781 35.4894 11.2028 35.6182 11.2704C35.6515 11.4305 35.6848 11.5905 35.717 11.7505Z" fill="white"/>
<path d="M9.50684 13.7681C9.90631 13.5522 10.3573 13.6446 10.7718 13.6145C12.3998 13.4932 14.0117 13.1764 15.6504 13.1925C15.6504 13.3525 15.6504 13.5125 15.6504 13.6725C14.2877 13.7144 12.9389 13.898 11.5848 14.0376C10.8921 14.1096 10.1963 14.1439 9.50684 14.2492C9.50684 14.0892 9.50684 13.9281 9.50684 13.7681Z" fill="white"/>
<path d="M15.649 20.5907C15.649 20.7507 15.649 20.9107 15.649 21.0707C15.0283 21.3896 14.3378 21.3112 13.6796 21.3918C12.5069 21.5335 11.3267 21.6269 10.1498 21.7386C9.9275 21.7601 9.70306 21.8159 9.50977 21.6473C9.50977 21.4873 9.50977 21.3273 9.50977 21.1673C10.0499 20.8108 10.6803 20.9225 11.2698 20.8484C12.4983 20.6927 13.7365 20.6132 14.9682 20.4779C15.2034 20.4511 15.4439 20.4156 15.649 20.5907Z" fill="white"/>
<path d="M15.648 21.5515C15.648 21.7115 15.648 21.8715 15.648 22.0315C15.3248 22.2505 14.9436 22.2248 14.5849 22.2581C13.0901 22.3934 11.6007 22.5791 10.1037 22.6919C9.89753 22.7069 9.6892 22.7649 9.50879 22.6081C9.50879 22.4481 9.50879 22.2881 9.50879 22.1281C10.0103 21.7587 10.6127 21.8704 11.169 21.8113C12.4018 21.6792 13.6367 21.5643 14.8706 21.4387C15.138 21.4108 15.4118 21.3571 15.648 21.5515Z" fill="white"/>
<path d="M15.648 23.4725C15.648 23.6325 15.648 23.7925 15.648 23.9525C15.0274 24.2714 14.3379 24.1974 13.6786 24.2725C12.5049 24.4068 11.3258 24.5077 10.1488 24.6205C9.92652 24.6419 9.70208 24.6978 9.50879 24.5292C9.50879 24.3692 9.50879 24.2092 9.50879 24.0492C10.0479 23.6926 10.6793 23.8043 11.2678 23.7302C12.4963 23.5745 13.7344 23.495 14.9651 23.3597C15.2035 23.3329 15.444 23.2975 15.648 23.4725Z" fill="white"/>
<path d="M29.6748 13.0005C30.885 12.8781 32.0942 12.7514 33.3045 12.6365C34.1388 12.557 34.9743 12.4947 35.8098 12.4238C35.8119 12.5838 35.8141 12.7428 35.8173 12.9028C34.606 13.0241 33.3947 13.1508 32.1833 13.2668C31.3479 13.3463 30.5113 13.4107 29.6748 13.4816C29.6759 13.3205 29.6748 13.1605 29.6748 13.0005Z" fill="white"/>
<path d="M15.648 24.7218C15.648 24.8818 15.648 25.0418 15.648 25.2018C15.0648 25.5412 14.4023 25.4467 13.7762 25.5218C12.5703 25.6657 11.36 25.7763 10.1498 25.8848C9.92535 25.9052 9.70199 25.946 9.50977 25.7785C9.50977 25.6185 9.50977 25.4585 9.50977 25.2985C10.1305 24.9795 10.8199 25.0472 11.4782 24.9795C12.654 24.8582 13.8299 24.7325 15.0069 24.6294C15.2302 24.6101 15.4536 24.5532 15.648 24.7218Z" fill="white"/>
<path d="M15.6503 14.8262C14.2876 14.867 12.9399 15.0668 11.5857 15.1924C10.892 15.2568 10.1972 15.2955 9.50781 15.4029C9.50781 15.2429 9.50781 15.0829 9.50781 14.9229C11.5524 14.6963 13.596 14.4622 15.6503 14.3462C15.6503 14.5051 15.6503 14.6651 15.6503 14.8262Z" fill="white"/>
<path d="M9.50977 25.7793C10.7554 25.6902 11.9968 25.5656 13.2371 25.4185C14.0382 25.3229 14.8436 25.2735 15.648 25.2026C15.648 25.3626 15.648 25.5226 15.648 25.6827C14.4345 25.8051 13.2221 25.9468 12.0065 26.0424C11.1678 26.1079 10.3345 26.1841 9.50977 26.3549C9.50977 26.1627 9.50977 25.9704 9.50977 25.7793Z" fill="white"/>
<path d="M15.6492 16.8437C14.2876 16.8855 12.9377 17.0692 11.5847 17.2088C10.8931 17.2807 10.1962 17.3129 9.50781 17.4203C9.50781 17.2603 9.50781 17.1003 9.50781 16.9403C10.9693 16.7825 12.4287 16.5978 13.8945 16.4786C14.4776 16.4313 15.0586 16.3003 15.6503 16.3637C15.6492 16.5226 15.6492 16.6826 15.6492 16.8437Z" fill="white"/>
<path d="M15.648 23.4728C14.3702 23.5566 13.0966 23.6854 11.824 23.8336C11.0541 23.9238 10.2809 23.9786 9.50879 24.0484C9.50879 23.8884 9.50879 23.7284 9.50879 23.5684C10.719 23.447 11.9293 23.3192 13.1406 23.2043C13.975 23.1249 14.8115 23.0615 15.647 22.9917C15.648 23.1528 15.648 23.3128 15.648 23.4728Z" fill="white"/>
<path d="M15.648 21.5514C14.3669 21.5997 13.0966 21.7748 11.824 21.9133C11.0541 21.9971 10.2809 22.0572 9.50879 22.127C9.50879 21.967 9.50879 21.807 9.50879 21.647C10.719 21.5256 11.9293 21.3978 13.1406 21.2829C13.975 21.2035 14.8115 21.1401 15.648 21.0703C15.648 21.2303 15.648 21.3914 15.648 21.5514Z" fill="white"/>
<path d="M15.6505 12.6158C14.3189 12.6555 13.0013 12.837 11.6804 12.9862C10.9577 13.0679 10.2307 13.1248 9.50586 13.1924C9.50586 13.0646 9.50586 12.9358 9.50586 12.808C9.92252 12.5943 10.3843 12.7081 10.8224 12.6437C11.936 12.4805 13.0689 12.4579 14.1868 12.3129C14.6744 12.2496 15.1758 12.3022 15.6494 12.1357C15.6505 12.2947 15.6505 12.4558 15.6505 12.6158Z" fill="white"/>
<path d="M15.649 20.5905C14.3711 20.6743 13.0975 20.8031 11.825 20.9524C11.0551 21.0426 10.2819 21.0974 9.50977 21.1672C9.50977 21.0394 9.50977 20.9105 9.50977 20.7827C11.5533 20.5551 13.5958 20.3188 15.6501 20.2061C15.649 20.3338 15.649 20.4627 15.649 20.5905Z" fill="white"/>
<path d="M15.648 19.6292C14.4378 19.7505 13.2276 19.8772 12.0163 19.9921C11.1819 20.0716 10.3453 20.135 9.50879 20.2048C9.50879 20.077 9.50879 19.9481 9.50879 19.8203C10.6879 19.6979 11.8659 19.569 13.0461 19.4574C13.9127 19.3747 14.7814 19.3145 15.6491 19.2437C15.6481 19.3736 15.648 19.5014 15.648 19.6292Z" fill="white"/>
<path d="M15.648 24.7216C14.4699 24.843 13.2919 24.9718 12.1117 25.0846C11.2451 25.1673 10.3774 25.2274 9.50977 25.2983C9.50977 25.1705 9.50977 25.0416 9.50977 24.9138C10.0875 24.5756 10.7458 24.6615 11.3665 24.5971C12.566 24.4714 13.7655 24.3501 14.9661 24.2373C15.2034 24.2148 15.4418 24.16 15.648 24.3383C15.648 24.466 15.648 24.5938 15.648 24.7216Z" fill="white"/>
<path d="M9.50879 22.6084C10.6879 22.486 11.8659 22.3571 13.045 22.2454C13.9116 22.1627 14.7804 22.1026 15.648 22.0317C15.648 22.1595 15.648 22.2884 15.648 22.4162C14.4002 22.4881 13.161 22.6385 11.9207 22.777C11.1196 22.8672 10.3131 22.922 9.50986 22.9918C9.50879 22.8651 9.50879 22.7362 9.50879 22.6084Z" fill="white"/>
<path d="M15.648 24.3371C14.4377 24.4584 13.2275 24.5851 12.0162 24.7C11.1818 24.7795 10.3452 24.8429 9.50977 24.9137C9.50977 24.786 9.50977 24.6571 9.50977 24.5293C10.72 24.408 11.9302 24.2802 13.1416 24.1653C13.976 24.0858 14.8125 24.0224 15.648 23.9526C15.648 24.0815 15.648 24.2093 15.648 24.3371Z" fill="white"/>
<path d="M15.6493 15.7858C14.3188 15.8255 13.0012 16.007 11.6803 16.1563C10.9576 16.2379 10.2317 16.2948 9.50684 16.3625C9.50684 16.2347 9.50684 16.1058 9.50684 15.978C11.5536 15.7794 13.594 15.5045 15.6493 15.4014C15.6504 15.5302 15.6493 15.658 15.6493 15.7858Z" fill="white"/>
<path d="M25.8269 21.6458C23.7865 21.6458 21.7462 21.6458 19.7059 21.6458C19.7026 21.5492 19.7005 21.4514 19.6973 21.3548C19.7681 21.242 19.6855 21.0616 19.8551 20.9918C20.9097 20.8265 21.9749 20.7502 23.037 20.6503C23.8144 20.5773 24.5887 20.471 25.3694 20.4345C25.5262 20.427 25.6883 20.384 25.8312 20.4936C25.8301 20.878 25.829 21.2614 25.8269 21.6458Z" fill="white"/>
<path d="M19.6935 16.9374C19.6935 16.6807 19.6924 16.4251 19.6924 16.1685C19.7439 15.9526 19.8921 15.8646 20.1037 15.842C21.8906 15.6487 23.6818 15.4844 25.4708 15.3072C25.6018 15.2943 25.7253 15.3148 25.8295 15.4028C25.8295 15.6595 25.8295 15.915 25.8295 16.1717C25.4923 16.5078 25.0445 16.4004 24.645 16.4434C22.9945 16.6206 21.3461 16.802 19.6935 16.9374Z" fill="white"/>
<path d="M19.6905 14.9214C19.6905 14.697 19.6895 14.4714 19.6895 14.247C19.7915 14.043 19.9869 14.029 20.1791 14.0065C21.9231 13.8024 23.6735 13.6532 25.4206 13.4835C25.5678 13.4695 25.7084 13.4728 25.8276 13.5758C25.8276 13.8003 25.8276 14.0247 25.8276 14.2481C25.4325 14.6153 24.9181 14.4929 24.4617 14.5434C23.042 14.7023 21.6181 14.8194 20.1985 14.9708C20.0288 14.9912 19.8495 15.0395 19.6905 14.9214Z" fill="white"/>
<path d="M25.8274 15.4028C24.3616 15.5617 22.898 15.7379 21.43 15.8667C21.0037 15.9043 20.5763 15.9516 20.1489 15.972C19.9588 15.9805 19.8085 16.0181 19.6914 16.1685C19.6914 15.9129 19.6914 15.6573 19.6914 15.4028C19.9341 15.1365 20.2713 15.1709 20.5806 15.1376C22.1591 14.9657 23.7388 14.8186 25.3206 14.6758C25.4903 14.6608 25.6696 14.6114 25.8274 14.7306C25.8274 14.9539 25.8274 15.1784 25.8274 15.4028Z" fill="white"/>
<path d="M19.781 21.0705C19.7778 21.1725 19.7982 21.281 19.6983 21.3551C19.6983 21.0351 19.6973 20.7151 19.6973 20.3951C19.7692 20.2823 19.6865 20.1019 19.8551 20.0321C20.9097 19.8656 21.976 19.7969 23.037 19.6874C23.8134 19.6068 24.5876 19.4984 25.3694 19.4737C25.5262 19.4683 25.6883 19.4243 25.8312 19.5338C25.8312 19.726 25.8322 19.9183 25.8322 20.1105C25.3694 20.4917 24.7927 20.3671 24.2708 20.423C22.9736 20.5626 21.6732 20.6786 20.3749 20.8203C20.1504 20.8439 19.9271 20.8654 19.781 21.0705Z" fill="white"/>
<path d="M19.6885 13.7672C19.6885 13.576 19.6885 13.3838 19.6885 13.1926C20.0203 12.8651 20.466 12.9306 20.8633 12.892C22.3506 12.7459 23.8347 12.572 25.3241 12.4538C25.497 12.4399 25.6742 12.3937 25.8277 12.5204C25.8277 12.7126 25.8277 12.9049 25.8277 13.0971C25.6108 13.2968 25.3381 13.3108 25.0664 13.3323C23.5383 13.4536 22.0166 13.6286 20.4917 13.7801C20.2243 13.8069 19.9548 13.8767 19.6885 13.7672Z" fill="white"/>
<path d="M19.781 20.1094C19.7778 20.2114 19.7982 20.3209 19.6973 20.3939C19.6973 20.0417 19.6973 19.6884 19.6973 19.3362C19.7424 19.144 19.8616 19.0387 20.0613 19.0194C21.8955 18.8401 23.7285 18.6425 25.5648 18.4868C25.6626 18.4782 25.7528 18.5093 25.8312 18.5716C25.8312 18.7316 25.8312 18.8916 25.8312 19.0516C25.712 19.1955 25.5573 19.2599 25.3737 19.2771C23.7565 19.4307 22.1414 19.6165 20.5231 19.7593C20.217 19.7883 19.9604 19.8484 19.781 20.1094Z" fill="white"/>
<path d="M25.8275 14.7295C25.0103 14.8251 24.1942 14.9379 23.3759 15.013C22.1463 15.1269 20.9125 15.2074 19.6915 15.4018C19.6915 15.2418 19.6904 15.0818 19.6904 14.9217C20.4174 14.7413 21.1659 14.7317 21.9037 14.6425C23.2084 14.4836 24.5196 14.3773 25.8275 14.2495C25.8275 14.4095 25.8275 14.5695 25.8275 14.7295Z" fill="white"/>
<path d="M19.6954 18.8571C19.6954 18.6971 19.6954 18.5371 19.6943 18.3771C19.748 18.0925 19.9735 18.0689 20.2001 18.0399C21.4469 17.881 22.7001 17.7897 23.95 17.664C24.4086 17.6179 24.8661 17.5588 25.3278 17.5298C25.5029 17.5191 25.6779 17.4836 25.8282 17.6114C25.8282 17.7714 25.8282 17.9314 25.8282 18.0914C25.491 18.4276 25.0443 18.3191 24.6448 18.3642C22.9975 18.5489 21.3459 18.7014 19.6954 18.8571Z" fill="white"/>
<path d="M19.6953 18.8574C20.0776 18.5169 20.5694 18.648 21.0054 18.5889C22.2296 18.4214 23.4624 18.3204 24.6931 18.2066C25.0721 18.1722 25.4555 18.1883 25.8292 18.0928C25.8292 18.2528 25.8292 18.4128 25.8303 18.5728C24.5524 18.7006 23.2756 18.8305 21.9977 18.9572C21.3351 19.0227 20.6725 19.0925 20.0089 19.1452C19.8564 19.157 19.7909 19.259 19.6953 19.3374C19.6953 19.1774 19.6953 19.0174 19.6953 18.8574Z" fill="white"/>
<path d="M19.6885 13.7674C20.3457 13.5601 21.0362 13.5827 21.7084 13.4967C23.0765 13.3228 24.4543 13.2251 25.8277 13.0962C25.8277 13.2562 25.8277 13.4162 25.8277 13.5762C24.3308 13.7341 22.8349 13.9059 21.3358 14.0444C20.7838 14.0949 20.2297 14.1067 19.6896 14.2474C19.6896 14.0884 19.6896 13.9274 19.6885 13.7674Z" fill="white"/>
<path d="M19.6935 17.8961C19.6935 17.7683 19.6924 17.6395 19.6924 17.5117C19.7235 17.2378 19.8663 17.1111 20.152 17.0832C21.8916 16.9157 23.6281 16.7138 25.371 16.5785C25.5299 16.5667 25.6888 16.5366 25.8273 16.6504C25.8273 16.8104 25.8273 16.9704 25.8273 17.1304C25.4902 17.4666 25.0434 17.3635 24.6429 17.4021C22.9945 17.5654 21.3461 17.7501 19.6935 17.8961Z" fill="white"/>
<path d="M25.8289 12.5205C24.5521 12.6483 23.2742 12.7696 21.9984 12.9071C21.2274 12.9897 20.4585 13.0971 19.6886 13.1927C19.6886 13.0638 19.6875 12.9361 19.6875 12.8072C20.0462 12.5495 20.4811 12.5785 20.8795 12.5334C22.4215 12.3615 23.9701 12.2477 25.5132 12.092C25.918 12.0512 25.7999 12.3229 25.8289 12.5205Z" fill="white"/>
<path d="M25.8284 16.6514C24.5226 16.7792 23.2168 16.907 21.911 17.0369C21.2817 17.0992 20.6535 17.1808 20.0231 17.2205C19.8008 17.2345 19.8041 17.4192 19.6924 17.5126C19.6924 17.3215 19.6924 17.1293 19.6924 16.9381C20.0274 16.5977 20.4849 16.7405 20.8736 16.6847C21.984 16.5236 23.1094 16.4688 24.2273 16.3615C24.7621 16.3099 25.2947 16.2358 25.8273 16.1714C25.8284 16.3303 25.8284 16.4903 25.8284 16.6514Z" fill="white"/>
<path d="M19.6934 17.896C20.0757 17.5556 20.5675 17.6866 21.0035 17.6265C22.2277 17.459 23.4605 17.358 24.6922 17.2442C25.0713 17.2088 25.4557 17.227 25.8283 17.1304C25.8283 17.2904 25.8283 17.4504 25.8283 17.6104C24.3314 17.7693 22.8355 17.9476 21.3364 18.0732C20.9251 18.1076 20.517 18.1946 20.1036 18.1817C19.9221 18.1763 19.8007 18.2483 19.6944 18.375C19.6944 18.216 19.6944 18.056 19.6934 17.896Z" fill="white"/>
<path d="M19.7804 20.1094C19.7428 19.7647 19.8813 19.6434 20.2411 19.6197C21.7616 19.5209 23.2779 19.3695 24.7889 19.1655C25.1346 19.1182 25.4933 19.188 25.8305 19.0527C25.8305 19.2127 25.8305 19.3727 25.8305 19.5328C25.0455 19.6262 24.2627 19.7604 23.4755 19.8034C22.2395 19.871 21.0207 20.118 19.7804 20.1094Z" fill="white"/>
<path d="M19.7803 21.0705C19.791 20.903 19.7362 20.7097 20.0112 20.686C21.0378 20.5958 22.0633 20.4992 23.0888 20.3972C24.0038 20.3059 24.9165 20.206 25.8304 20.1094C25.8304 20.2372 25.8304 20.366 25.8304 20.4938C25.0776 20.5872 24.3259 20.7279 23.571 20.7623C22.3028 20.8203 21.0517 21.078 19.7803 21.0705Z" fill="white"/>
<path d="M20.5486 41.5382C20.5486 41.506 20.5389 41.4706 20.5497 41.4426C20.6549 41.1957 20.3048 40.7962 20.7419 40.6823C21.2294 40.5556 21.8319 40.91 21.9596 41.3213C22.0864 41.7294 21.9178 42.1353 21.5312 42.3329C21.3164 42.4424 21.0855 42.4886 20.8407 42.5015C20.6098 42.5133 20.5239 42.4446 20.5443 42.2083C20.5636 41.9871 20.5486 41.7627 20.5486 41.5382Z" fill="white"/>
<path d="M35.8113 16.364C35.8113 16.6206 35.8113 16.8762 35.8113 17.1328C35.2669 17.4883 34.6333 17.3863 34.0405 17.4496C32.8335 17.5785 31.6244 17.6966 30.4152 17.8137C30.1618 17.8384 29.904 17.9017 29.6817 17.7095C29.6817 17.4528 29.6807 17.1973 29.6807 16.9406C29.9685 16.7226 30.3207 16.7527 30.6461 16.7215C32.1871 16.5744 33.7259 16.4112 35.2669 16.2576C35.4613 16.2383 35.6513 16.2201 35.8113 16.364Z" fill="white"/>
<path d="M35.811 18.6695C35.811 18.9262 35.811 19.1817 35.811 19.4384C35.1914 19.7573 34.502 19.68 33.8448 19.7573C32.6883 19.8937 31.5285 20.0011 30.3687 20.1117C30.1314 20.1343 29.8908 20.1998 29.6836 20.0151C29.6836 19.7584 29.6836 19.5028 29.6836 19.2462C29.9531 19.0346 30.2817 19.0368 30.5964 19.0121C32.1084 18.8918 33.615 18.7135 35.1248 18.5696C35.3632 18.5471 35.6038 18.4902 35.811 18.6695Z" fill="white"/>
<path d="M35.8126 14.4426C35.8126 14.6982 35.8126 14.9548 35.8126 15.2104C35.2295 15.5465 34.568 15.452 33.9419 15.5293C32.7381 15.6797 31.5258 15.7645 30.3187 15.8902C30.0954 15.9138 29.8709 15.9557 29.6798 15.786C29.6798 15.5304 29.6787 15.2738 29.6787 15.0171C29.9676 14.8045 30.3144 14.8141 30.643 14.7884C32.1561 14.6681 33.6627 14.4952 35.1726 14.3481C35.3959 14.3277 35.6193 14.2729 35.8126 14.4426Z" fill="white"/>
<path d="M35.8119 22.5128C35.8119 22.7372 35.8119 22.9617 35.8119 23.185C35.6584 23.3805 35.4404 23.4052 35.2127 23.4245C33.691 23.5534 32.1715 23.7166 30.652 23.8712C30.3256 23.9045 29.9852 23.9915 29.6855 23.7628C29.6855 23.5384 29.6855 23.3139 29.6855 23.0905C29.9733 22.8726 30.3256 22.9026 30.6499 22.8715C32.1898 22.7244 33.7286 22.5622 35.2675 22.4076C35.4618 22.3872 35.6519 22.37 35.8119 22.5128Z" fill="white"/>
<path d="M29.6836 20.0147C30.8917 19.8922 32.0998 19.7644 33.3089 19.6495C34.1423 19.5701 34.9767 19.5078 35.811 19.438C35.811 19.6624 35.811 19.8858 35.811 20.1102C35.5973 20.311 35.3257 20.325 35.055 20.3475C33.5366 20.47 32.0225 20.6407 30.5062 20.7911C30.2248 20.819 29.9359 20.8963 29.6847 20.6869C29.6847 20.4625 29.6836 20.2391 29.6836 20.0147Z" fill="white"/>
<path d="M29.6856 23.7617C31.0462 23.7317 32.3907 23.5351 33.7405 23.3923C34.431 23.3193 35.128 23.3118 35.812 23.1851C35.812 23.4095 35.812 23.6329 35.812 23.8573C35.6939 24.0012 35.5393 24.0688 35.3556 24.086C33.6922 24.2417 32.0299 24.4168 30.3665 24.5693C30.1334 24.5907 29.8843 24.6154 29.6846 24.434C29.6856 24.2106 29.6856 23.9862 29.6856 23.7617Z" fill="white"/>
<path d="M35.8114 16.3637C34.6345 16.485 33.4575 16.6117 32.2795 16.7245C31.414 16.8072 30.5474 16.8695 29.6808 16.9403C29.6808 16.7159 29.6797 16.4915 29.6797 16.267C29.9686 16.0544 30.3154 16.0641 30.644 16.0383C32.156 15.9202 33.6616 15.7344 35.1725 15.598C35.3948 15.5776 35.6181 15.5207 35.8114 15.6904C35.8114 15.9148 35.8114 16.1392 35.8114 16.3637Z" fill="white"/>
<path d="M35.8117 14.4426C34.6337 14.564 33.4567 14.6918 32.2776 14.8034C31.4121 14.8861 30.5444 14.9473 29.6778 15.0193C29.6778 14.7948 29.6768 14.5704 29.6768 14.346C29.9817 14.1269 30.349 14.1537 30.6905 14.1226C32.2164 13.9841 33.7381 13.7983 35.2651 13.678C35.4573 13.663 35.6485 13.6265 35.8117 13.7704C35.8117 13.9937 35.8117 14.2182 35.8117 14.4426Z" fill="white"/>
<path d="M35.8131 24.4338C35.8131 24.626 35.8131 24.8183 35.8131 25.0105C35.695 25.1533 35.5403 25.222 35.3567 25.2392C33.6933 25.3949 32.031 25.57 30.3665 25.7235C30.1334 25.745 29.8843 25.7708 29.6846 25.5882C29.6846 25.396 29.6846 25.2038 29.6846 25.0116C29.793 24.8999 29.9359 24.8838 30.0798 24.8709C31.8226 24.7044 33.5634 24.5219 35.3073 24.3683C35.4813 24.3511 35.6585 24.3082 35.8131 24.4338Z" fill="white"/>
<path d="M35.8109 21.3592C35.8109 21.5514 35.8109 21.7436 35.8109 21.9358C35.3277 22.3052 34.7392 22.185 34.2012 22.2494C32.9416 22.3987 31.6755 22.5093 30.4116 22.6295C30.1614 22.6532 29.9026 22.7036 29.6846 22.5125C29.6846 22.3203 29.6846 22.128 29.6846 21.9358C29.9713 21.7103 30.3267 21.7608 30.6489 21.7296C32.2189 21.5814 33.7856 21.4129 35.3567 21.2711C35.5189 21.2571 35.6767 21.2421 35.8109 21.3592Z" fill="white"/>
<path d="M35.8111 17.6125C35.8111 17.8047 35.8111 17.997 35.8111 18.1892C35.2678 18.5457 34.6331 18.4329 34.0403 18.5081C32.8204 18.6627 31.5909 18.7433 30.3677 18.8764C30.1304 18.9022 29.8877 18.9473 29.6826 18.7658C29.6826 18.5736 29.6826 18.3814 29.6826 18.1892C29.9704 17.9647 30.3259 18.0163 30.648 17.9841C32.2169 17.8251 33.7858 17.6694 35.3569 17.5255C35.518 17.5105 35.6758 17.4944 35.8111 17.6125Z" fill="white"/>
<path d="M35.813 24.4336C33.7737 24.6602 31.7355 24.8964 29.6855 25.0103C29.6855 24.818 29.6855 24.6258 29.6855 24.4336C31.0773 24.4014 32.454 24.2124 33.836 24.0663C34.4943 23.9965 35.159 23.9826 35.813 23.8569C35.813 24.0492 35.813 24.2414 35.813 24.4336Z" fill="white"/>
<path d="M29.6855 22.5127C31.0107 22.4493 32.3272 22.3011 33.6438 22.1422C34.3644 22.0552 35.0892 22.0037 35.8119 21.936C35.8119 22.1283 35.8119 22.3205 35.813 22.5127C34.636 22.634 33.4602 22.7608 32.2832 22.8735C31.4188 22.9562 30.5522 23.0185 29.6866 23.0904C29.6855 22.8971 29.6855 22.7049 29.6855 22.5127Z" fill="white"/>
<path d="M29.6855 25.5869C31.0773 25.5547 32.455 25.3657 33.836 25.2197C34.4943 25.1499 35.159 25.1359 35.813 25.0103C35.813 25.2025 35.8141 25.3947 35.8141 25.5869C34.461 25.6084 33.1262 25.8264 31.7828 25.9456C31.0869 26.0068 30.39 26.1238 29.6855 26.068C29.6855 25.9069 29.6855 25.7469 29.6855 25.5869Z" fill="white"/>
<path d="M35.8111 17.6128C34.3206 17.7707 32.8312 17.9339 31.3407 18.0821C30.7898 18.1369 30.2357 18.1551 29.6837 18.1895C29.6837 18.0295 29.6837 17.8695 29.6826 17.7095C30.9283 17.6343 32.1654 17.4861 33.4046 17.3465C34.2046 17.2563 35.009 17.2026 35.8111 17.1328C35.8111 17.2928 35.8111 17.4528 35.8111 17.6128Z" fill="white"/>
<path d="M35.8109 20.4949C35.8109 20.6549 35.8109 20.8149 35.8109 20.9749C35.3277 21.3443 34.7392 21.2241 34.2012 21.2885C32.9405 21.4378 31.6734 21.529 30.4116 21.6686C30.1614 21.6966 29.9026 21.7427 29.6846 21.5516C29.6846 21.3916 29.6846 21.2316 29.6846 21.0716C29.9713 20.8461 30.3267 20.8976 30.65 20.8654C32.2189 20.7086 33.7867 20.54 35.3578 20.4069C35.5189 20.394 35.6767 20.3779 35.8109 20.4949Z" fill="white"/>
<path d="M35.8114 15.6904C34.6345 15.8117 33.4575 15.9395 32.2795 16.0512C31.414 16.1339 30.5463 16.1951 29.6808 16.267C29.6808 16.107 29.6808 15.947 29.6797 15.787C30.9211 15.6646 32.1614 15.539 33.4038 15.4219C34.206 15.3457 35.0093 15.2812 35.8125 15.2114C35.8125 15.3704 35.8114 15.5304 35.8114 15.6904Z" fill="white"/>
<path d="M29.6826 18.7647C30.9584 18.6809 32.2298 18.5499 33.4991 18.4017C34.2669 18.3126 35.0401 18.2578 35.8101 18.188C35.8101 18.348 35.8101 18.508 35.8101 18.668C34.602 18.7894 33.3939 18.9139 32.1847 19.0299C31.3514 19.1094 30.517 19.1738 29.6826 19.2457C29.6837 19.0857 29.6837 18.9257 29.6826 18.7647Z" fill="white"/>
<path d="M35.8128 13.7694C34.6348 13.8907 33.4567 14.0185 32.2787 14.1302C31.4132 14.2129 30.5444 14.2741 29.6778 14.345C29.6778 14.2172 29.6768 14.0883 29.6768 13.9605C30.8569 13.8381 32.0371 13.7135 33.2183 13.5933C33.9432 13.5192 34.6691 13.4547 35.394 13.3817C35.6839 13.3538 35.8654 13.4311 35.8128 13.7694Z" fill="white"/>
<path d="M29.6846 21.5518C31.0097 21.4884 32.3252 21.323 33.6428 21.1802C34.3645 21.1018 35.0882 21.0428 35.8109 20.9751C35.8109 21.1029 35.8109 21.2318 35.8109 21.3595C34.3215 21.5174 32.8321 21.6806 31.3415 21.8288C30.7917 21.8836 30.2376 21.9018 29.6856 21.9362C29.6856 21.8084 29.6846 21.6796 29.6846 21.5518Z" fill="white"/>
<path d="M35.8109 20.4948C34.3215 20.6526 32.8321 20.8159 31.3415 20.9641C30.7917 21.0188 30.2376 21.0371 29.6846 21.0715C29.6846 20.9437 29.6846 20.8148 29.6846 20.687C30.9635 20.6333 32.2296 20.4626 33.5 20.323C34.2689 20.2392 35.0399 20.1802 35.8109 20.1104C35.8109 20.2381 35.8109 20.3659 35.8109 20.4948Z" fill="white"/>
<path d="M29.7643 42.1913C29.4733 42.1913 29.2091 42.1913 28.917 42.1913C29.004 41.8487 29.1575 41.5459 29.3326 41.2173C29.5269 41.5298 29.6461 41.8444 29.7643 42.1913Z" fill="white"/>
<path d="M23.0066 32.0688C23.1623 32.4017 23.3792 32.6702 23.3019 32.9204C23.2504 33.0869 22.9121 32.9612 22.6426 32.9859C22.765 32.6788 22.8713 32.4103 23.0066 32.0688Z" fill="#F6FAF6"/>
<path d="M61.7936 34.6812C61.5597 36.8825 59.9741 38.562 57.9622 38.7867C55.3314 39.0823 53.3287 38.151 52.7884 36.1113C52.188 33.8453 52.1849 31.4855 52.796 29.218C53.3348 27.223 55.6131 26.1531 57.9929 26.5595C60.008 26.9028 61.1702 28.1481 61.7275 30.06C61.8568 30.5034 61.806 30.7066 61.2995 30.665C61.0178 30.6419 60.7299 30.6388 60.4498 30.665C59.7571 30.7327 59.2768 30.6234 58.9551 29.843C58.5764 28.924 57.6235 28.6269 56.5736 28.8609C55.6808 29.0595 55.0912 29.666 55.0466 30.6542C54.985 32.0135 54.985 33.3789 55.0512 34.7382C55.0989 35.7141 55.7285 36.3484 56.6014 36.5238C57.6451 36.7332 58.6595 36.4099 58.9751 35.5032C59.266 34.6689 59.754 34.6243 60.4359 34.672C60.8854 34.7058 61.338 34.6812 61.7936 34.6812Z" fill="white"/>
<path d="M97.2471 37.7106C97.3302 37.5813 97.3687 37.5028 97.4226 37.4397C97.8105 36.9886 98.1245 36.4067 98.6109 36.1266C99.122 35.8326 99.6223 36.4298 100.158 36.5545C101.002 36.75 101.836 36.8085 102.678 36.6223C102.975 36.5561 103.321 36.4637 103.335 36.0681C103.352 35.6247 102.987 35.4893 102.659 35.4354C101.711 35.2799 100.749 35.1999 99.8024 35.0367C98.4678 34.8058 97.8259 34.1593 97.7397 33.0463C97.6381 31.7271 98.2153 30.7342 99.4299 30.3185C101.356 29.6612 103.218 29.9491 105.024 30.8065C105.395 30.982 105.497 31.176 105.144 31.4762C105.038 31.567 104.936 31.6763 104.865 31.7948C104.408 32.5629 103.857 32.7769 102.994 32.3336C102.307 31.9811 101.5 32.0396 100.735 32.135C100.409 32.1766 99.9841 32.2212 99.9594 32.6461C99.9333 33.1048 100.366 33.1233 100.692 33.1725C101.503 33.2911 102.321 33.3742 103.132 33.4973C104.724 33.7421 105.429 34.4179 105.533 35.7679C105.637 37.1102 104.878 38.2247 103.454 38.5834C101.286 39.1283 99.2082 38.8636 97.2471 37.7106Z" fill="white"/>
<path d="M76.2516 31.2563C77.1382 30.2203 78.0172 29.8308 79.1163 30.0032C80.708 30.2542 81.6086 31.1947 81.6994 32.9788C81.7887 34.7337 81.7225 36.4963 81.741 38.2543C81.7456 38.6237 81.6116 38.7207 81.2499 38.7453C79.2826 38.8777 79.2841 38.89 79.2841 36.9042C79.2841 35.8267 79.298 34.7476 79.2795 33.67C79.2626 32.6433 78.7392 32.1337 77.7617 32.1507C76.8242 32.1661 76.3362 32.6525 76.3208 33.6639C76.2993 35.1109 76.2978 36.5579 76.3239 38.0049C76.3332 38.5159 76.2531 38.7561 75.6435 38.753C73.9056 38.7438 73.9056 38.7761 73.9056 37.0397C73.9056 34.94 73.921 32.8403 73.8948 30.7406C73.8886 30.2388 73.9872 29.9909 74.5398 30.0741C74.7892 30.1125 75.0524 30.1079 75.3033 30.0756C76.0099 29.9848 76.5487 30.0679 76.2516 31.2563Z" fill="white"/>
<path d="M92.7007 38.8374C89.9422 38.8297 88.526 37.4073 88.5198 34.6318C88.5183 34.1777 88.5075 33.7221 88.5521 33.2726C88.7646 31.1452 90.5641 29.7767 92.9209 29.9568C93.9738 30.0368 94.9929 30.24 95.858 30.9266C96.2013 31.1991 96.2936 31.4069 95.8918 31.6963C95.664 31.861 95.4516 32.058 95.2669 32.2705C94.9159 32.6753 94.5865 32.6892 94.0969 32.4382C93.0856 31.921 91.8957 32.1073 91.343 32.7677C90.8166 33.3973 90.7734 35.2137 91.2676 35.9357C91.7725 36.673 93.084 36.9563 94.0446 36.3806C94.6619 36.0096 94.9559 36.1974 95.3731 36.6284C96.366 37.6567 96.3537 37.7999 95.0175 38.4048C94.374 38.6958 93.6043 38.8405 92.7007 38.8374Z" fill="white"/>
<path d="M64.007 31.9841C64.007 30.4247 64.0271 28.8653 63.9947 27.3059C63.984 26.7902 64.1179 26.6348 64.652 26.6332C66.4162 26.6301 66.4162 26.6055 66.4162 28.3912C66.4162 30.7449 66.4239 33.097 66.41 35.4507C66.4069 36.0541 66.4808 36.5544 67.2459 36.5252C67.5661 36.5129 67.6292 36.6791 67.6061 36.9424C67.603 36.9701 67.6153 37.0039 67.6045 37.027C67.3429 37.5704 68.1849 38.5818 67.0704 38.708C65.1569 38.9251 64.0517 38.1615 64.0147 36.7469C63.9763 35.1598 64.007 33.5711 64.007 31.9841Z" fill="white"/>
<path d="M69.1379 34.344C69.1379 33.0971 69.1518 31.8517 69.1302 30.6064C69.1225 30.2077 69.238 30.0892 69.649 30.0707C71.5917 29.9845 71.5902 29.9691 71.5902 31.9071C71.5902 33.9468 71.5732 35.9849 71.6009 38.0246C71.6086 38.5711 71.4639 38.7542 70.8928 38.7527C69.1379 38.7512 69.1379 38.7773 69.1379 37.064C69.1379 36.1558 69.1379 35.2507 69.1379 34.344Z" fill="white"/>
<path d="M86.502 34.3721C86.502 35.6189 86.4835 36.8643 86.5112 38.1096C86.5205 38.5715 86.4112 38.7408 85.9093 38.75C84.0498 38.7854 84.0498 38.807 84.0498 36.9751C84.0498 34.9078 84.0698 32.8404 84.0375 30.773C84.0282 30.2127 84.1929 30.0634 84.7456 30.0665C86.5035 30.0741 86.5035 30.0511 86.5035 31.8213C86.502 32.6726 86.502 33.5223 86.502 34.3721Z" fill="white"/>
<path d="M70.2481 28.915C69.9372 28.7888 69.3183 29.189 69.1906 28.7026C69.0335 28.0991 69.1521 27.4172 69.189 26.7722C69.1983 26.6229 69.4184 26.6521 69.5538 26.6506C69.9202 26.646 70.2958 26.6952 70.6545 26.6383C71.4642 26.5105 71.6397 26.8676 71.6074 27.6127C71.552 28.9135 71.5935 28.915 70.2481 28.915Z" fill="white"/>
<path d="M85.1909 28.9148C84.8646 28.8486 84.235 29.1057 84.1411 28.784C83.9671 28.1852 84.0718 27.5032 84.0764 26.8552C84.078 26.672 84.2488 26.6597 84.3905 26.6535C84.5598 26.6473 84.7291 26.6504 84.8985 26.6489C86.6626 26.6412 86.6472 26.6396 86.5148 28.4576C86.4871 28.8409 86.3532 28.9441 86.0083 28.9194C85.7543 28.8994 85.4988 28.9148 85.1909 28.9148Z" fill="white"/>
<path d="M77.3621 11.5014C76.1553 11.5014 76.1553 11.5014 76.1553 10.3145C76.1553 9.23389 76.1553 9.23389 77.553 9.23389C78.5921 9.23389 78.5921 9.23389 78.5906 10.5054C78.5906 11.5014 78.5906 11.5014 77.3621 11.5014Z" fill="white"/>
<path d="M58.0689 17.3635C58.8724 14.7312 59.6267 12.3282 60.3287 9.91142C60.4841 9.37726 60.7104 9.18023 61.2631 9.22333C61.9111 9.27413 62.5684 9.26181 63.2196 9.22641C63.6783 9.20178 63.7907 9.37111 63.7892 9.80829C63.7738 13.4412 63.7722 17.0756 63.7907 20.7101C63.7938 21.1965 63.6445 21.3289 63.1642 21.3366C61.5417 21.3612 61.5417 21.3812 61.5417 19.7649C61.5417 17.579 61.5417 15.3946 61.5417 13.2087C61.4986 13.1949 61.4555 13.1826 61.4108 13.1687C61.223 13.7337 61.0352 14.3002 60.8459 14.8651C60.3502 16.3429 59.8345 17.813 59.3696 19.3C59.2219 19.7711 59.0479 19.9866 58.503 19.9789C56.979 19.9558 56.9805 19.9866 56.4895 18.5273C55.903 16.7878 55.3134 15.0514 54.5991 13.3119C54.5868 13.5397 54.5653 13.766 54.5653 13.9938C54.5622 16.2074 54.5437 18.4226 54.5776 20.6362C54.5868 21.2088 54.4067 21.3443 53.8602 21.3397C52.3517 21.3258 52.3517 21.3505 52.3517 19.8249C52.3517 16.5322 52.3624 13.238 52.3409 9.94529C52.3378 9.41575 52.4409 9.16945 53.029 9.22795C53.8679 9.31415 54.9224 8.89698 55.4997 9.38958C56.0308 9.84369 56.0677 10.8797 56.3109 11.6632C56.8789 13.4997 57.4439 15.3377 58.0689 17.3635Z" fill="white"/>
<path d="M101.535 20.6164C100.451 21.4199 99.3164 21.5154 98.1388 21.3676C96.7949 21.1998 96.0607 20.384 95.9606 18.9724C95.8682 17.6639 96.5363 16.731 97.7986 16.3847C98.7746 16.1168 99.7721 16.2738 100.757 16.2092C101.02 16.1923 101.432 16.4355 101.528 15.9644C101.605 15.5857 101.482 15.224 101.168 14.9731C100.748 14.6375 100.245 14.5498 99.7274 14.5821C99.4473 14.599 99.1132 14.6006 98.9039 14.7483C98.0603 15.3456 97.5585 14.8438 96.9566 14.3112C96.4286 13.8447 96.4794 13.6154 97.0535 13.2982C98.6683 12.4023 100.343 12.2915 102.038 12.9673C103.133 13.4029 103.725 14.2927 103.751 15.4795C103.79 17.2359 103.765 18.9939 103.793 20.7519C103.801 21.1937 103.662 21.3722 103.213 21.3307C102.875 21.2999 102.529 21.2906 102.193 21.3322C101.702 21.3953 101.444 21.2414 101.535 20.6164Z" fill="white"/>
<path d="M73.8673 18.0499C73.8673 18.9273 73.8488 19.8063 73.875 20.6837C73.8873 21.1394 73.7765 21.3795 73.2654 21.3303C72.9006 21.2949 72.5296 21.3241 72.1617 21.3226C72.0493 21.3226 71.8538 21.3472 71.8353 21.3026C71.3951 20.282 70.864 21.1748 70.416 21.2625C69.5386 21.438 68.6735 21.5011 67.8114 21.2856C66.6338 20.9916 66.0781 20.1665 66.0704 18.8072C66.0627 17.5388 66.6384 16.7414 67.7976 16.4027C68.7966 16.1103 69.8234 16.2673 70.8363 16.2072C71.101 16.1919 71.5167 16.4274 71.6013 15.9456C71.6737 15.533 71.5444 15.1512 71.1719 14.908C70.4391 14.4277 69.6648 14.554 68.8797 14.7541C68.5611 14.8357 68.2717 15.2344 67.9623 15.0466C67.5112 14.771 67.131 14.3723 66.7385 14.006C66.4799 13.7643 66.7062 13.6288 66.8832 13.478C68.244 12.3065 71.3828 12.2418 72.7944 13.364C73.427 13.8659 73.7872 14.5263 73.8134 15.3313C73.8427 16.2365 73.8196 17.1432 73.8196 18.0483C73.835 18.0499 73.8519 18.0499 73.8673 18.0499Z" fill="white"/>
<path d="M83.3621 13.6799C84.1317 12.8441 84.9522 12.4654 85.9528 12.5608C87.6938 12.7271 88.6867 13.7954 88.7575 15.6996C88.8207 17.399 88.7637 19.1047 88.7837 20.8057C88.7883 21.2213 88.6359 21.3152 88.2434 21.3337C86.3238 21.4245 86.3238 21.4368 86.3238 19.5311C86.3238 18.4243 86.3392 17.3175 86.3176 16.2107C86.2976 15.2378 85.7789 14.7421 84.8399 14.739C83.8978 14.7359 83.3805 15.2208 83.3621 16.2153C83.3359 17.6623 83.3328 19.1093 83.3667 20.5563C83.3805 21.1151 83.2697 21.3491 82.637 21.3414C80.9468 21.3198 80.9453 21.3521 80.9453 19.6665C80.9453 17.5668 80.9637 15.4671 80.9329 13.3674C80.9252 12.8256 81.0515 12.5793 81.6257 12.664C81.875 12.7009 82.1352 12.6824 82.3907 12.667C83.0357 12.6285 83.6653 12.5931 83.3621 13.6799Z" fill="white"/>
<path d="M108.633 13.823C109.477 12.7854 110.36 12.4129 111.462 12.5961C112.892 12.8347 113.798 13.6582 113.955 15.0914C114.164 17.0125 114.002 18.9475 114.041 20.8763C114.047 21.2011 113.911 21.3366 113.584 21.3258C113.102 21.3104 112.617 21.2935 112.138 21.3305C111.662 21.3674 111.576 21.1519 111.581 20.7332C111.599 19.2569 111.593 17.7807 111.587 16.306C111.582 15.2561 111.108 14.7512 110.132 14.7373C109.166 14.725 108.676 15.2299 108.667 16.2921C108.655 17.7114 108.641 19.1307 108.675 20.55C108.688 21.1103 108.578 21.3458 107.942 21.3397C106.242 21.3212 106.242 21.352 106.242 19.651C106.242 17.579 106.273 15.5055 106.225 13.435C106.21 12.7731 106.421 12.5699 107.037 12.6623C107.231 12.6915 107.437 12.69 107.631 12.6623C108.34 12.5653 108.864 12.6746 108.633 13.823Z" fill="white"/>
<path d="M91.1925 14.5111C91.1925 12.9809 91.2094 11.4493 91.1832 9.91914C91.174 9.42962 91.2663 9.22489 91.8236 9.22027C93.6139 9.2018 93.6139 9.17563 93.6139 10.9674C93.6139 13.2642 93.617 15.5594 93.6123 17.8561C93.6108 18.5088 93.5862 19.1569 94.5329 19.1261C94.8207 19.1169 94.7853 19.3616 94.8069 19.5571C94.9932 21.2581 94.5652 21.6306 92.8734 21.235C91.7743 20.978 91.2125 20.2883 91.1986 19.103C91.1771 17.5729 91.1925 16.0427 91.1925 14.5111Z" fill="white"/>
<path d="M78.5902 16.9538C78.5902 18.1992 78.5748 19.443 78.5979 20.6868C78.6056 21.1363 78.5132 21.3272 77.9991 21.338C76.1534 21.3764 76.1549 21.3995 76.1549 19.5661C76.1549 17.4726 76.1672 15.3791 76.1456 13.2871C76.141 12.8237 76.2488 12.6636 76.746 12.6559C78.5902 12.6267 78.5902 12.6067 78.5902 14.4093C78.5902 15.2575 78.5902 16.1056 78.5902 16.9538Z" fill="white"/>
<path d="M121.529 20.4286C120.543 21.4969 119.43 21.6232 118.246 21.2476C117.064 20.8735 116.526 19.9299 116.337 18.7646C116.145 17.5823 116.149 16.3939 116.343 15.2117C116.528 14.0803 117.054 13.1705 118.184 12.7626C119.347 12.3439 120.41 12.5039 121.288 13.4476C121.335 13.4984 121.414 13.5215 121.563 13.6031C121.563 12.3238 121.585 11.1139 121.553 9.90704C121.54 9.40828 121.657 9.2251 122.202 9.22048C123.983 9.20663 123.983 9.18046 123.983 10.98C123.983 14.1542 123.96 17.3299 124 20.504C124.009 21.1983 123.792 21.4215 123.141 21.3291C122.919 21.2984 122.686 21.3014 122.462 21.3291C121.837 21.4061 121.385 21.303 121.529 20.4286Z" fill="white"/>
<path d="M118.686 17.0066C118.709 16.5848 118.674 16.1491 118.769 15.7427C118.95 14.9746 119.491 14.6359 120.275 14.6821C120.994 14.7252 121.428 15.0762 121.511 15.8166C121.599 16.6048 121.597 17.3914 121.516 18.1796C121.434 18.9662 120.958 19.3033 120.199 19.3125C119.396 19.3218 118.862 18.9354 118.752 18.1903C118.696 17.804 118.743 17.4022 118.743 17.0081C118.723 17.0081 118.705 17.0081 118.686 17.0066Z" fill="#1B2C19"/>
<path d="M99.8046 19.6465C99.5106 19.6204 99.3413 19.6173 99.175 19.588C98.687 19.5003 98.1637 19.3818 98.1852 18.7583C98.2083 18.1149 98.6901 17.944 99.2597 17.9502C99.7677 17.9548 100.279 17.9194 100.782 17.964C101.039 17.9871 101.463 17.7193 101.532 18.218C101.598 18.6998 101.609 19.2248 101.008 19.4079C100.582 19.5342 100.129 19.5834 99.8046 19.6465Z" fill="#1B2C19"/>
<path d="M70.2204 17.9483C70.4452 17.9483 70.6776 17.9144 70.8947 17.9575C71.1471 18.0068 71.5751 17.7251 71.6089 18.2577C71.6351 18.6733 71.709 19.1459 71.2025 19.3506C70.4251 19.6631 69.6231 19.7339 68.8119 19.4784C68.4471 19.363 68.2408 19.1028 68.2716 18.7226C68.3039 18.3162 68.5456 18.0268 68.9581 17.9852C69.3753 17.9437 69.8002 17.976 70.222 17.976C70.2204 17.9667 70.2204 17.9575 70.2204 17.9483Z" fill="#1B2C19"/>
</svg>
