<svg width="89" height="90" viewBox="0 0 89 90" fill="none" xmlns="http://www.w3.org/2000/svg">
<g clip-path="url(#clip0_1_33)">
<path d="M40.6431 52.8001H34.2146V45.0002H40.6431V38.5003H48.3572V45.0002H54.7857V52.8001H48.3572V59.2999H40.6431V52.8001ZM62.4998 34.6004V63.1999C62.4998 66.0598 60.1856 68.3998 57.357 68.3998H31.6432C28.8147 68.3998 26.5005 66.0598 26.5005 63.1999V34.6004C26.5005 31.7405 28.8147 29.4005 31.6432 29.4005H57.357C60.1856 29.4005 62.4998 31.7405 62.4998 34.6004ZM57.357 34.6004H31.6432V63.1999H57.357V34.6004ZM59.9284 21.6006H29.0719V26.8005H59.9284V21.6006Z" fill="#208D05"/>
</g>
<rect x="0.5" y="1" width="88" height="88" rx="44" stroke="#208D05"/>
<defs>
<clipPath id="clip0_1_33">
<rect y="0.5" width="89" height="89" rx="44.5" fill="white"/>
</clipPath>
</defs>
</svg>
