<svg width="220" height="44" viewBox="0 0 220 44" fill="none" xmlns="http://www.w3.org/2000/svg">
<rect x="0.5" y="0.5" width="219" height="43" rx="4.5" fill="#F0F0F0"/>
<rect x="0.5" y="0.5" width="219" height="43" rx="4.5" stroke="#17A110"/>
<path d="M23.5859 16.0781C25.0599 16.0781 26.1354 16.3958 26.8125 17.0312C27.4896 17.6615 27.8281 18.5312 27.8281 19.6406C27.8281 20.1406 27.7526 20.6198 27.6016 21.0781C27.4505 21.5312 27.2031 21.9349 26.8594 22.2891C26.5208 22.6432 26.0677 22.9245 25.5 23.1328C24.9323 23.3359 24.2318 23.4375 23.3984 23.4375H22.3594V27.5H19.9375V16.0781H23.5859ZM23.4609 18.0625H22.3594V21.4531H23.1562C23.6094 21.4531 24.0026 21.3932 24.3359 21.2734C24.6693 21.1536 24.9271 20.9661 25.1094 20.7109C25.2917 20.4557 25.3828 20.1276 25.3828 19.7266C25.3828 19.1641 25.2266 18.7474 24.9141 18.4766C24.6016 18.2005 24.1172 18.0625 23.4609 18.0625ZM33.375 18.5859C34.5469 18.5859 35.4453 18.8411 36.0703 19.3516C36.6953 19.862 37.0078 20.638 37.0078 21.6797V27.5H35.3438L34.8828 26.3125H34.8203C34.5703 26.625 34.3151 26.8802 34.0547 27.0781C33.7943 27.276 33.4948 27.4219 33.1562 27.5156C32.8177 27.6094 32.4062 27.6562 31.9219 27.6562C31.4062 27.6562 30.9427 27.5573 30.5312 27.3594C30.125 27.1615 29.8047 26.8594 29.5703 26.4531C29.3359 26.0417 29.2188 25.5208 29.2188 24.8906C29.2188 23.9635 29.5443 23.2812 30.1953 22.8438C30.8464 22.401 31.8229 22.1562 33.125 22.1094L34.6406 22.0625V21.6797C34.6406 21.2214 34.5208 20.8854 34.2812 20.6719C34.0417 20.4583 33.7083 20.3516 33.2812 20.3516C32.8594 20.3516 32.4453 20.4115 32.0391 20.5312C31.6328 20.651 31.2266 20.8021 30.8203 20.9844L30.0312 19.375C30.4948 19.1302 31.013 18.9375 31.5859 18.7969C32.1641 18.6562 32.7604 18.5859 33.375 18.5859ZM34.6406 23.4531L33.7188 23.4844C32.9479 23.5052 32.4115 23.6432 32.1094 23.8984C31.8125 24.1536 31.6641 24.4896 31.6641 24.9062C31.6641 25.2708 31.7708 25.5312 31.9844 25.6875C32.1979 25.8385 32.4766 25.9141 32.8203 25.9141C33.3307 25.9141 33.7604 25.763 34.1094 25.4609C34.4635 25.1589 34.6406 24.7292 34.6406 24.1719V23.4531ZM38.2188 18.7656H40.8281L42.4766 23.6797C42.5286 23.8359 42.5729 23.9948 42.6094 24.1562C42.6458 24.3177 42.6771 24.4844 42.7031 24.6562C42.7292 24.8281 42.75 25.0078 42.7656 25.1953H42.8125C42.8438 24.9141 42.8854 24.651 42.9375 24.4062C42.9948 24.1615 43.0651 23.9193 43.1484 23.6797L44.7656 18.7656H47.3203L43.625 28.6172C43.401 29.2214 43.1094 29.724 42.75 30.125C42.3906 30.5312 41.9766 30.8359 41.5078 31.0391C41.0443 31.2422 40.5339 31.3438 39.9766 31.3438C39.7057 31.3438 39.4714 31.3281 39.2734 31.2969C39.0755 31.2708 38.9062 31.2422 38.7656 31.2109V29.3203C38.875 29.3464 39.013 29.3698 39.1797 29.3906C39.3464 29.4115 39.5208 29.4219 39.7031 29.4219C40.0365 29.4219 40.3229 29.3516 40.5625 29.2109C40.8021 29.0703 41.0026 28.8802 41.1641 28.6406C41.3255 28.4062 41.4531 28.1484 41.5469 27.8672L41.6875 27.4375L38.2188 18.7656ZM59.9141 27.5L59.2422 24.4453C59.2057 24.263 59.1458 23.9948 59.0625 23.6406C58.9792 23.2812 58.888 22.8984 58.7891 22.4922C58.6953 22.0807 58.6068 21.7005 58.5234 21.3516C58.4453 21.0026 58.388 20.7474 58.3516 20.5859H58.2812C58.2448 20.7474 58.1875 21.0026 58.1094 21.3516C58.0312 21.7005 57.9427 22.0807 57.8438 22.4922C57.75 22.9036 57.6615 23.2917 57.5781 23.6562C57.4948 24.0156 57.4323 24.2891 57.3906 24.4766L56.6875 27.5H54.125L51.6406 18.7656H54.0156L55.0234 22.6328C55.0911 22.9036 55.1562 23.2266 55.2188 23.6016C55.2812 23.9714 55.3359 24.3307 55.3828 24.6797C55.4349 25.0234 55.474 25.2969 55.5 25.5H55.5625C55.5729 25.349 55.5938 25.1484 55.625 24.8984C55.6615 24.6484 55.7005 24.3906 55.7422 24.125C55.7891 23.8542 55.8307 23.612 55.8672 23.3984C55.9089 23.1797 55.9401 23.0312 55.9609 22.9531L57.0391 18.7656H59.6641L60.6875 22.9531C60.724 23.1042 60.7708 23.3438 60.8281 23.6719C60.8906 24 60.9453 24.3385 60.9922 24.6875C61.0391 25.0312 61.0651 25.3021 61.0703 25.5H61.1328C61.1536 25.3229 61.1901 25.0599 61.2422 24.7109C61.2943 24.362 61.3542 23.9974 61.4219 23.6172C61.4948 23.2318 61.5677 22.9036 61.6406 22.6328L62.6875 18.7656H65.0234L62.5078 27.5H59.9141ZM68.8203 18.7656V27.5H66.4375V18.7656H68.8203ZM67.6328 15.3438C67.987 15.3438 68.2917 15.4271 68.5469 15.5938C68.8021 15.7552 68.9297 16.0599 68.9297 16.5078C68.9297 16.9505 68.8021 17.2578 68.5469 17.4297C68.2917 17.5964 67.987 17.6797 67.6328 17.6797C67.2734 17.6797 66.9661 17.5964 66.7109 17.4297C66.4609 17.2578 66.3359 16.9505 66.3359 16.5078C66.3359 16.0599 66.4609 15.7552 66.7109 15.5938C66.9661 15.4271 67.2734 15.3438 67.6328 15.3438ZM75.0078 25.7578C75.2682 25.7578 75.5208 25.7318 75.7656 25.6797C76.0156 25.6276 76.263 25.5625 76.5078 25.4844V27.2578C76.2526 27.3724 75.9349 27.4661 75.5547 27.5391C75.1797 27.6172 74.7682 27.6562 74.3203 27.6562C73.7995 27.6562 73.3307 27.5729 72.9141 27.4062C72.5026 27.2344 72.1771 26.9401 71.9375 26.5234C71.7031 26.1016 71.5859 25.5156 71.5859 24.7656V20.5547H70.4453V19.5469L71.7578 18.75L72.4453 16.9062H73.9688V18.7656H76.4141V20.5547H73.9688V24.7656C73.9688 25.099 74.0625 25.349 74.25 25.5156C74.4427 25.6771 74.6953 25.7578 75.0078 25.7578ZM80.6641 15.3438V17.8203C80.6641 18.2526 80.6484 18.6641 80.6172 19.0547C80.5911 19.4453 80.5703 19.7214 80.5547 19.8828H80.6797C80.8672 19.5807 81.0885 19.3359 81.3438 19.1484C81.6042 18.9609 81.8906 18.8229 82.2031 18.7344C82.5156 18.6458 82.8516 18.6016 83.2109 18.6016C83.8411 18.6016 84.3906 18.7135 84.8594 18.9375C85.3281 19.1562 85.6927 19.5026 85.9531 19.9766C86.2135 20.4453 86.3438 21.0547 86.3438 21.8047V27.5H83.9609V22.3984C83.9609 21.7734 83.8464 21.3021 83.6172 20.9844C83.388 20.6667 83.0339 20.5078 82.5547 20.5078C82.0755 20.5078 81.6979 20.6198 81.4219 20.8438C81.1458 21.0625 80.9505 21.388 80.8359 21.8203C80.7214 22.2474 80.6641 22.7708 80.6641 23.3906V27.5H78.2812V15.3438H80.6641Z" fill="#003C58"/>
<g clip-path="url(#clip0_25_52429)">
<path fill-rule="evenodd" clip-rule="evenodd" d="M185.404 35.3817C184.485 35.1381 192.734 24.9147 191.359 20.7752C190.672 18.5863 183.801 18.8299 183.801 18.0982C183.801 17.3674 197.093 15.4238 198.345 17.2469C200.298 19.807 186.549 35.8689 185.404 35.3817ZM201.437 11.7702C201.437 13.5194 200.105 14.9343 198.459 14.9343C196.816 14.9343 195.482 13.5194 195.482 11.7702C195.482 10.0218 196.816 8.6068 198.459 8.6068C200.105 8.6068 201.437 10.0218 201.437 11.7702Z" fill="#ED342B"/>
<path fill-rule="evenodd" clip-rule="evenodd" d="M101.424 19.1012C99.5356 19.1012 98.0046 20.6207 98.0046 22.4954C98.0046 24.3698 99.5356 25.8892 101.424 25.8892C103.312 25.8892 104.843 24.3698 104.843 22.4954C104.843 20.6207 103.312 19.1012 101.424 19.1012ZM105.809 28.5703L104.607 27.3762C103.69 27.9667 102.598 28.3105 101.424 28.3105C98.1883 28.3105 95.5654 25.707 95.5654 22.4954C95.5654 19.2833 98.1883 16.6798 101.424 16.6798C104.659 16.6798 107.282 19.2833 107.282 22.4954C107.282 23.6983 106.914 24.8161 106.283 25.7439L107.737 27.1871L105.809 28.5703ZM180.181 21.4905L180.532 19.6331C180.532 19.6331 177.822 18.8168 175.62 20.3296V27.7591H177.959L177.959 21.7227C178.894 21.026 180.181 21.4905 180.181 21.4905ZM122.123 23.6627C122.123 23.0704 122.22 22.5121 122.413 21.9876C122.607 21.4631 122.887 21.0061 123.253 20.6164C123.619 20.2267 124.064 19.9177 124.588 19.6891C125.111 19.4608 125.707 19.3461 126.377 19.3461C126.816 19.3461 127.219 19.3852 127.585 19.4631C127.952 19.541 128.308 19.6526 128.653 19.7984L128.167 21.6526C127.947 21.5693 127.706 21.4965 127.444 21.4345C127.183 21.372 126.889 21.3409 126.565 21.3409C125.874 21.3409 125.359 21.5537 125.019 21.9798C124.679 22.4059 124.509 22.9667 124.509 23.6627C124.509 24.4002 124.669 24.9717 124.988 25.3766C125.307 25.7819 125.864 25.9845 126.659 25.9845C126.942 25.9845 127.245 25.9587 127.57 25.9066C127.894 25.8544 128.192 25.7716 128.465 25.6573L128.794 27.5581C128.522 27.6726 128.182 27.7709 127.774 27.8541C127.366 27.9374 126.916 27.9788 126.424 27.9788C125.67 27.9788 125.022 27.8672 124.478 27.644C123.934 27.4208 123.486 27.1166 123.136 26.7324C122.784 26.348 122.529 25.8936 122.366 25.3689C122.204 24.8443 122.123 24.2755 122.123 23.6627ZM150.528 21.0002C149.007 21.0002 148.89 22.6253 148.89 22.6253H152.165C152.165 22.6253 152.048 21.0002 150.528 21.0002ZM154.153 24.2507H148.89C148.89 24.2507 149.007 25.9923 151.346 25.9923C152.515 25.9923 153.685 25.6438 153.685 25.6438L153.919 27.5011C153.919 27.5011 152.749 27.9653 151.112 27.9653C148.773 27.9653 146.669 26.8044 146.669 23.5542C146.669 21.0002 148.305 19.3751 150.644 19.3751C154.153 19.3751 154.387 22.8575 154.153 24.2507ZM170.165 21.0002C168.644 21.0002 168.527 22.6253 168.527 22.6253H171.802C171.802 22.6253 171.685 21.0002 170.165 21.0002ZM173.79 24.2507H168.527C168.527 24.2507 168.644 25.9923 170.983 25.9923C172.152 25.9923 173.322 25.6438 173.322 25.6438L173.556 27.5011C173.556 27.5011 172.387 27.9653 170.749 27.9653C168.41 27.9653 166.305 26.8044 166.305 23.5542C166.305 21.0002 167.943 19.3751 170.282 19.3751C173.79 19.3751 174.024 22.8575 173.79 24.2507Z" fill="#003C58"/>
<path fill-rule="evenodd" clip-rule="evenodd" d="M120.325 27.7603H117.986V19.5638H120.325V27.7603Z" fill="#003C58"/>
<path fill-rule="evenodd" clip-rule="evenodd" d="M116.332 19.5649L116.336 26.9901C116.336 26.9901 115.162 27.9224 112.59 27.9224C110.251 27.9224 108.965 26.7615 108.965 24.2074V19.5646H111.303V24.2074C111.303 25.8329 112.122 25.9488 112.823 25.9488C113.525 25.9488 113.994 25.6006 113.994 25.6006L113.993 19.5649H116.332ZM132.786 22.5062C133.016 22.2584 133.254 22.0003 133.499 21.7319C133.745 21.4635 133.983 21.1974 134.213 20.9341C134.443 20.6703 134.66 20.42 134.864 20.1825C135.068 19.9452 135.243 19.7383 135.389 19.5625H138.17C137.615 20.1955 137.074 20.7993 136.545 21.3745C136.017 21.9497 135.439 22.5431 134.811 23.1548C135.125 23.4356 135.449 23.7714 135.784 24.1615C136.119 24.552 136.443 24.9551 136.757 25.3715C137.072 25.7877 137.359 26.2039 137.621 26.6203C137.883 27.0366 138.102 27.4162 138.28 27.7594H135.591C135.423 27.4887 135.233 27.1896 135.019 26.8613C134.805 26.5333 134.577 26.2051 134.337 25.8773C134.097 25.5495 133.843 25.2344 133.577 24.9323C133.311 24.6306 133.047 24.3754 132.786 24.1667V27.7594H130.447V17.5154L132.786 17.1058V22.5062ZM139.637 17.5162L141.976 17.1065V19.5219H144.291V21.4542H141.976V24.3366C141.976 24.8252 142.062 25.2148 142.235 25.5053C142.408 25.7963 142.755 25.9416 143.279 25.9416C143.53 25.9416 143.789 25.9182 144.056 25.8715C144.323 25.8247 144.566 25.7601 144.786 25.6766L145.115 27.4845C144.833 27.5989 144.519 27.6974 144.174 27.7807C143.829 27.8634 143.404 27.9048 142.902 27.9048C142.263 27.9048 141.735 27.8193 141.317 27.6479C140.898 27.4765 140.564 27.2376 140.312 26.9312C140.061 26.625 139.886 26.2535 139.786 25.817C139.687 25.3807 139.637 24.8977 139.637 24.368V17.5162ZM159.165 27.9152C158.484 27.905 157.932 27.8321 157.508 27.6974C157.085 27.5624 156.749 27.3726 156.504 27.1282C156.258 26.8845 156.09 26.5882 156.001 26.2401C155.912 25.8922 155.868 25.4998 155.868 25.0635V17.5153L158.207 17.1055V24.5959C158.207 24.8042 158.222 24.991 158.254 25.1574C158.285 25.3234 158.346 25.4638 158.434 25.5778C158.523 25.6925 158.652 25.7859 158.819 25.8584C158.986 25.9313 159.212 25.9778 159.494 25.9984L159.165 27.9152ZM164.447 27.9152C163.766 27.905 163.215 27.8321 162.791 27.6974C162.367 27.5624 162.032 27.3726 161.786 27.1282C161.54 26.8845 161.373 26.5882 161.284 26.2401C161.195 25.8922 161.15 25.4998 161.15 25.0635V17.5153L163.489 17.1055V24.5959C163.489 24.8042 163.505 24.991 163.536 25.1574C163.568 25.3234 163.628 25.4638 163.717 25.5778C163.806 25.6925 163.934 25.7859 164.102 25.8584C164.269 25.9313 164.494 25.9778 164.777 25.9984L164.447 27.9152Z" fill="#003C58"/>
</g>
<defs>
<clipPath id="clip0_25_52429">
<rect width="106" height="27" fill="white" transform="translate(95.5 8.5)"/>
</clipPath>
</defs>
</svg>
