<svg width="90" height="88" viewBox="0 0 90 88" fill="none" xmlns="http://www.w3.org/2000/svg">
<g clip-path="url(#clip0_7_1259)">
<path d="M44.625 28.6229C47.6156 28.6229 50.0391 30.9925 50.0391 33.9166C50.0391 36.8408 47.6156 39.2104 44.625 39.2104C41.6344 39.2104 39.2109 36.8408 39.2109 33.9166C39.2109 30.9925 41.6344 28.6229 44.625 28.6229ZM44.625 51.3104C52.282 51.3104 60.3516 54.9908 60.3516 56.6041V59.3771H28.8984V56.6041C28.8984 54.9908 36.968 51.3104 44.625 51.3104ZM44.625 23.8333C38.9273 23.8333 34.3125 28.3456 34.3125 33.9166C34.3125 39.4877 38.9273 44 44.625 44C50.3227 44 54.9375 39.4877 54.9375 33.9166C54.9375 28.3456 50.3227 23.8333 44.625 23.8333ZM44.625 46.5208C37.7414 46.5208 24 49.8987 24 56.6041V64.1666H65.25V56.6041C65.25 49.8987 51.5086 46.5208 44.625 46.5208Z" fill="#208D05"/>
</g>
<rect x="0.5" y="0.5" width="89" height="87" rx="43.5" stroke="#208D05"/>
<defs>
<clipPath id="clip0_7_1259">
<rect width="90" height="88" rx="44" fill="white"/>
</clipPath>
</defs>
</svg>
