<svg width="21" height="22" viewBox="0 0 21 22" fill="none" xmlns="http://www.w3.org/2000/svg">
<g clip-path="url(#clip0_26_2268)">
<rect y="0.5" width="21" height="21" rx="10.5" fill="white"/>
<path d="M10.5 -0.0859375C4.704 -0.0859375 0 4.87943 0 10.9975C0 17.1155 4.704 22.0809 10.5 22.0809C16.296 22.0809 21 17.1155 21 10.9975C21 4.87943 16.296 -0.0859375 10.5 -0.0859375ZM10.5 4.34742C12.5265 4.34742 14.175 6.08752 14.175 8.22661C14.175 10.3657 12.5265 12.1058 10.5 12.1058C8.4735 12.1058 6.825 10.3657 6.825 8.22661C6.825 6.08752 8.4735 4.34742 10.5 4.34742ZM10.5 19.8642C8.3685 19.8642 5.8485 18.9553 4.053 16.6722C5.8275 15.2092 8.064 14.3225 10.5 14.3225C12.936 14.3225 15.1725 15.2092 16.947 16.6722C15.1515 18.9553 12.6315 19.8642 10.5 19.8642Z" fill="#C3C3C3"/>
</g>
<defs>
<clipPath id="clip0_26_2268">
<rect y="0.5" width="21" height="21" rx="10.5" fill="white"/>
</clipPath>
</defs>
</svg>
