<svg width="43" height="41" viewBox="0 0 43 41" fill="none" xmlns="http://www.w3.org/2000/svg">
<path d="M19.0034 40.6041C16.4303 40.6041 14.0117 40.1158 11.7476 39.1393C9.48345 38.1627 7.51398 36.8374 5.83918 35.1634C4.16435 33.4893 2.83845 31.5207 1.86147 29.2576C0.884486 26.9945 0.395996 24.5764 0.395996 22.0033C0.395996 19.4301 0.884355 17.0115 1.86107 14.7474C2.83779 12.4833 4.16334 10.5138 5.83772 8.83904C7.51209 7.16421 9.48103 5.83831 11.7445 4.86133C14.008 3.88435 16.4265 3.39585 19.0001 3.39585C20.3534 3.39585 21.6639 3.53144 22.9318 3.8026C24.1997 4.07377 25.4124 4.47046 26.5698 4.99268V8.28787C25.4525 7.67276 24.2574 7.19321 22.9843 6.84923C21.7113 6.50528 20.3832 6.33331 19.0001 6.33331C14.6591 6.33331 10.9628 7.85917 7.91105 10.9109C4.85931 13.9626 3.33345 17.659 3.33345 22C3.33345 26.3409 4.85931 30.0373 7.91105 33.089C10.9628 36.1408 14.6591 37.6666 19.0001 37.6666C23.3411 37.6666 27.0374 36.1408 30.0892 33.089C33.1409 30.0373 34.6668 26.3409 34.6668 22C34.6668 21.0058 34.5733 20.041 34.3862 19.1058C34.1992 18.1706 33.9387 17.2648 33.6048 16.3886H36.7606C37.0418 17.2849 37.2527 18.1941 37.3933 19.1163C37.5339 20.0385 37.6042 20.9997 37.6042 22C37.6042 24.5736 37.116 26.9921 36.1394 29.2556C35.1628 31.5191 33.8375 33.488 32.1635 35.1624C30.4894 36.8368 28.5208 38.1623 26.2577 39.139C23.9946 40.1157 21.5765 40.6041 19.0034 40.6041ZM35.1564 11.7187V7.80201H31.2397V4.8646H35.1564V0.947937H38.0938V4.8646H42.0105V7.80201H38.0938V11.7187H35.1564ZM25.6704 19.665C26.383 19.665 26.9872 19.4156 27.4831 18.9168C27.9789 18.418 28.2269 17.8123 28.2269 17.0997C28.2269 16.3871 27.9774 15.7829 27.4786 15.2871C26.9798 14.7912 26.3741 14.5433 25.6615 14.5433C24.949 14.5433 24.3447 14.7927 23.8489 15.2915C23.353 15.7903 23.1051 16.396 23.1051 17.1086C23.1051 17.8212 23.3545 18.4254 23.8533 18.9212C24.3521 19.4171 24.9578 19.665 25.6704 19.665ZM12.3387 19.665C13.0513 19.665 13.6555 19.4156 14.1513 18.9168C14.6472 18.418 14.8952 17.8123 14.8952 17.0997C14.8952 16.3871 14.6457 15.7829 14.1469 15.2871C13.6481 14.7912 13.0424 14.5433 12.3298 14.5433C11.6173 14.5433 11.013 14.7927 10.5172 15.2915C10.0213 15.7903 9.77338 16.396 9.77338 17.1086C9.77338 17.8212 10.0228 18.4254 10.5216 18.9212C11.0204 19.4171 11.6261 19.665 12.3387 19.665ZM19.0001 32.1682C21.0622 32.1682 22.9347 31.5964 24.6177 30.4528C26.3007 29.3092 27.5439 27.7971 28.3473 25.9166H9.65289C10.4563 27.7971 11.6995 29.3092 13.3825 30.4528C15.0655 31.5964 16.9381 32.1682 19.0001 32.1682Z" fill="#4EE39C"/>
</svg>
