<svg width="46" height="46" viewBox="0 0 46 46" fill="none" xmlns="http://www.w3.org/2000/svg">
<path d="M9.77496 30.7625C9.07218 29.5486 8.5451 28.3028 8.19371 27.025C7.84232 25.7472 7.66663 24.4375 7.66663 23.0959C7.66663 18.8153 9.15204 15.1736 12.1229 12.1709C15.0937 9.16808 18.7194 7.66669 23 7.66669H23.3354L20.2687 4.60002L22.952 1.91669L30.6187 9.58335L22.952 17.25L20.2687 14.5667L23.3354 11.5H23C19.8055 11.5 17.0902 12.6261 14.8541 14.8781C12.618 17.1302 11.5 19.8695 11.5 23.0959C11.5 23.9264 11.5958 24.741 11.7875 25.5396C11.9791 26.3382 12.2666 27.1209 12.65 27.8875L9.77496 30.7625ZM23.0479 44.0834L15.3812 36.4167L23.0479 28.75L25.7312 31.4334L22.6645 34.5H23C26.1944 34.5 28.9097 33.374 31.1458 31.1219C33.3819 28.8698 34.5 26.1306 34.5 22.9042C34.5 22.0736 34.4041 21.259 34.2125 20.4604C34.0208 19.6618 33.7333 18.8792 33.35 18.1125L36.225 15.2375C36.9277 16.4514 37.4548 17.6972 37.8062 18.975C38.1576 20.2528 38.3333 21.5625 38.3333 22.9042C38.3333 27.1847 36.8479 30.8264 33.877 33.8292C30.9062 36.832 27.2805 38.3334 23 38.3334H22.6645L25.7312 41.4L23.0479 44.0834Z" fill="#69E862"/>
</svg>
