<svg width="52" height="51" viewBox="0 0 52 51" fill="none" xmlns="http://www.w3.org/2000/svg">
<path d="M19.5782 34.7716L25.9998 30.8757L32.4214 34.7716L30.7178 27.4685L36.4132 22.5587L28.9183 21.9284L25.9998 15.0409L23.0813 21.9284L15.5864 22.5587L21.2818 27.4685L19.5782 34.7716ZM25.9998 50.6932L18.546 43.3124H8.18737V32.9538L0.806641 25.5L8.18737 18.0462V7.68755H18.546L25.9998 0.306824L33.4536 7.68755H43.8123V18.0462L51.193 25.5L43.8123 32.9538V43.3124H33.4536L25.9998 50.6932ZM25.9998 45.6875L31.9373 39.75H40.2498V31.4375L46.1873 25.5L40.2498 19.5625V11.25H31.9373L25.9998 5.31249L20.0623 11.25H11.7498V19.5625L5.81231 25.5L11.7498 31.4375V39.75H20.0623L25.9998 45.6875Z" fill="#FF7E89"/>
</svg>
