<svg width="51" height="51" viewBox="0 0 51 51" fill="none" xmlns="http://www.w3.org/2000/svg">
<path d="M42.1377 50.0416C37.2691 50.0416 32.3782 48.9097 27.4649 46.646C22.5516 44.3823 18.0375 41.1887 13.9224 37.0653C9.80725 32.9419 6.61783 28.4277 4.35409 23.5228C2.09036 18.6177 0.958496 13.731 0.958496 8.86241C0.958496 8.0803 1.21683 7.42855 1.7335 6.90715C2.25016 6.38575 2.896 6.12504 3.671 6.12504H12.0965C12.749 6.12504 13.3245 6.33784 13.8229 6.76345C14.3214 7.18905 14.6385 7.71483 14.7742 8.34077L16.2547 15.9416C16.3574 16.6471 16.3358 17.2532 16.1901 17.7599C16.0444 18.2666 15.7827 18.6922 15.4051 19.0367L9.43868 24.8442C10.3992 26.6028 11.4963 28.2663 12.73 29.8345C13.9637 31.4027 15.2992 32.9006 16.7366 34.3281C18.1542 35.7456 19.6611 37.0621 21.2575 38.2776C22.8539 39.4931 24.5777 40.6241 26.4291 41.6707L32.2267 35.8234C32.6308 35.4028 33.1201 35.1081 33.6948 34.9392C34.2694 34.7703 34.8664 34.7289 35.4857 34.815L42.6593 36.2755C43.3118 36.4477 43.8442 36.7806 44.2565 37.274C44.6689 37.7675 44.875 38.3273 44.875 38.9533V47.3291C44.875 48.1041 44.6143 48.7499 44.0929 49.2666C43.5715 49.7833 42.9198 50.0416 42.1377 50.0416ZM7.60554 21.1779L12.2158 16.7664C12.2986 16.7001 12.3524 16.609 12.3773 16.4931C12.4021 16.3772 12.398 16.2695 12.3649 16.1702L11.2421 10.3974C11.209 10.2649 11.151 10.1656 11.0682 10.0994C10.9854 10.0331 10.8778 9.99998 10.7453 9.99998H5.22093C5.1216 9.99998 5.03881 10.0331 4.97254 10.0994C4.90628 10.1656 4.87315 10.2484 4.87315 10.3478C5.00563 12.113 5.2946 13.9065 5.74005 15.7281C6.18555 17.5497 6.80738 19.3663 7.60554 21.1779ZM30.0805 43.5038C31.7928 44.302 33.5788 44.9123 35.4384 45.3346C37.2981 45.7568 39.0361 46.0077 40.6523 46.0871C40.7517 46.0871 40.8345 46.054 40.9007 45.9878C40.967 45.9216 41.0001 45.8387 41.0001 45.7394V40.3045C41.0001 40.172 40.967 40.0643 40.9007 39.9815C40.8345 39.8987 40.7351 39.8408 40.6027 39.8076L35.1777 38.7048C35.0783 38.6716 34.9914 38.6675 34.9169 38.6924C34.8423 38.7172 34.7637 38.771 34.6809 38.8538L30.0805 43.5038ZM37.7746 25.5C34.3807 25.5 31.4864 24.3039 29.0919 21.9119C26.6974 19.5198 25.5001 16.6268 25.5001 13.2329C25.5001 9.83899 26.6961 6.94478 29.0882 4.55024C31.4803 2.15566 34.3733 0.958374 37.7672 0.958374C41.1611 0.958374 44.0553 2.15444 46.4498 4.54656C48.8444 6.93864 50.0417 9.83163 50.0417 13.2255C50.0417 16.6194 48.8456 19.5136 46.4535 21.9082C44.0614 24.3027 41.1685 25.5 37.7746 25.5ZM36.6283 20.8302H38.9135V11.0433H36.6283V20.8302ZM37.7709 8.31093C38.1153 8.31093 38.4167 8.18176 38.675 7.92343C38.9334 7.6651 39.0625 7.36371 39.0625 7.01926C39.0625 6.67482 38.9334 6.37343 38.675 6.1151C38.4167 5.85676 38.1153 5.7276 37.7709 5.7276C37.4264 5.7276 37.125 5.85676 36.8667 6.1151C36.6084 6.37343 36.4792 6.67482 36.4792 7.01926C36.4792 7.36371 36.6084 7.6651 36.8667 7.92343C37.125 8.18176 37.4264 8.31093 37.7709 8.31093Z" fill="#FF7E89"/>
</svg>
