<svg width="45" height="44" viewBox="0 0 45 44" fill="none" xmlns="http://www.w3.org/2000/svg">
<g clip-path="url(#clip0_368_28908)">
<path d="M32.125 22H34.875V18.8833L37.5792 20.4417L38.9542 18.0583L36.25 16.5L38.9542 14.9417L37.5792 12.5583L34.875 14.1167V11H32.125V14.1167L29.4208 12.5583L28.0458 14.9417L30.75 16.5L28.0458 18.0583L29.4208 20.4417L32.125 18.8833V22ZM4.16667 38.5C3.15833 38.5 2.29514 38.141 1.57708 37.4229C0.859028 36.7049 0.5 35.8417 0.5 34.8333V9.16667C0.5 8.15833 0.859028 7.29514 1.57708 6.57708C2.29514 5.85903 3.15833 5.5 4.16667 5.5H40.8333C41.8417 5.5 42.7049 5.85903 43.4229 6.57708C44.141 7.29514 44.5 8.15833 44.5 9.16667V34.8333C44.5 35.8417 44.141 36.7049 43.4229 37.4229C42.7049 38.141 41.8417 38.5 40.8333 38.5H4.16667ZM29.65 34.8333H40.8333V9.16667H4.16667V34.8333H4.35C5.63333 32.5417 7.40556 30.7465 9.66667 29.4479C11.9278 28.1493 14.3722 27.5 17 27.5C19.6278 27.5 22.0722 28.1493 24.3333 29.4479C26.5944 30.7465 28.3667 32.5417 29.65 34.8333ZM17 25.6667C18.5278 25.6667 19.8264 25.1319 20.8958 24.0625C21.9653 22.9931 22.5 21.6944 22.5 20.1667C22.5 18.6389 21.9653 17.3403 20.8958 16.2708C19.8264 15.2014 18.5278 14.6667 17 14.6667C15.4722 14.6667 14.1736 15.2014 13.1042 16.2708C12.0347 17.3403 11.5 18.6389 11.5 20.1667C11.5 21.6944 12.0347 22.9931 13.1042 24.0625C14.1736 25.1319 15.4722 25.6667 17 25.6667ZM8.84167 34.8333H25.1583C24.1194 33.6722 22.8896 32.7708 21.4688 32.1292C20.0479 31.4875 18.5583 31.1667 17 31.1667C15.4417 31.1667 13.9597 31.4875 12.5542 32.1292C11.1486 32.7708 9.91111 33.6722 8.84167 34.8333ZM17 22C16.4806 22 16.0451 21.8243 15.6938 21.4729C15.3424 21.1215 15.1667 20.6861 15.1667 20.1667C15.1667 19.6472 15.3424 19.2118 15.6938 18.8604C16.0451 18.509 16.4806 18.3333 17 18.3333C17.5194 18.3333 17.9549 18.509 18.3062 18.8604C18.6576 19.2118 18.8333 19.6472 18.8333 20.1667C18.8333 20.6861 18.6576 21.1215 18.3062 21.4729C17.9549 21.8243 17.5194 22 17 22Z" fill="#69E862"/>
</g>
<defs>
<clipPath id="clip0_368_28908">
<rect width="44" height="44" fill="white" transform="translate(0.5)"/>
</clipPath>
</defs>
</svg>
