<svg width="51" height="45" viewBox="0 0 51 45" fill="none" xmlns="http://www.w3.org/2000/svg">
<path d="M25.5001 44.4831C24.9073 44.4831 24.3302 44.3721 23.7688 44.1502C23.2075 43.9283 22.7132 43.5955 22.2859 43.1517L5.47442 26.2756C3.96748 24.7686 2.83809 23.0588 2.08625 21.1462C1.33441 19.2335 0.958496 17.2555 0.958496 15.212C0.958496 11.1416 2.26011 7.66241 4.86333 4.77437C7.46652 1.88638 10.689 0.442383 14.5309 0.442383C16.4485 0.442383 18.2725 0.830699 20.003 1.60733C21.7335 2.38401 23.276 3.47117 24.6306 4.86879L25.5001 5.78794L26.3199 4.91846C27.6645 3.48772 29.2062 2.38401 30.945 1.60733C32.6838 0.830699 34.5037 0.442383 36.4047 0.442383C40.2466 0.442383 43.4799 1.88638 46.1046 4.77437C48.7293 7.66241 50.0417 11.1201 50.0417 15.1474C50.0417 17.2075 49.6592 19.1938 48.8941 21.1065C48.129 23.0191 47.0062 24.7289 45.5258 26.2359L28.6497 43.1517C28.2059 43.5955 27.7183 43.9283 27.1867 44.1502C26.6551 44.3721 26.0929 44.4831 25.5001 44.4831ZM28.0834 12.8125C28.4146 12.8125 28.7243 12.8912 29.0124 13.0485C29.3005 13.2058 29.5274 13.4153 29.693 13.6769L34.2586 20.5625H44.88C45.3305 19.6981 45.6683 18.8105 45.8935 17.8996C46.1187 16.9888 46.2231 16.0714 46.2065 15.1474C46.137 12.1766 45.1715 9.64211 43.3102 7.54396C41.4489 5.44582 39.1471 4.39676 36.4047 4.39676C35.0369 4.39676 33.7146 4.66751 32.4378 5.20902C31.1611 5.75053 30.054 6.54127 29.1168 7.58123L27.0749 9.77706C26.8762 10.0189 26.6377 10.1985 26.3595 10.3161C26.0813 10.4337 25.7949 10.4925 25.5001 10.4925C25.2053 10.4925 24.9147 10.4295 24.6282 10.3037C24.3417 10.1778 24.0859 10.0023 23.8607 9.77706L21.8188 7.58123C20.8816 6.54127 19.7812 5.73729 18.5176 5.1693C17.2541 4.60127 15.9252 4.31725 14.5309 4.31725C11.7885 4.31725 9.48673 5.37956 7.62543 7.50418C5.7641 9.62885 4.83343 12.1766 4.83343 15.1474C4.83343 16.088 4.93941 17.0096 5.15138 17.9121C5.36334 18.8146 5.68628 19.6981 6.12019 20.5625H17.7501C18.0813 20.5625 18.3868 20.6412 18.6667 20.7985C18.9465 20.9558 19.1693 21.1653 19.3348 21.4269L22.3405 25.9031L26.2503 14.1737C26.3894 13.773 26.6229 13.4459 26.9508 13.1926C27.2786 12.9392 27.6562 12.8125 28.0834 12.8125ZM28.6597 19.0968L24.7499 30.8263C24.6108 31.227 24.3665 31.554 24.0171 31.8074C23.6677 32.0607 23.2794 32.1874 22.8522 32.1874C22.521 32.1874 22.2155 32.1088 21.9356 31.9515C21.6558 31.7942 21.433 31.5847 21.2674 31.323L16.677 24.4374H9.12073L25.048 40.3896C25.1341 40.4757 25.2095 40.5295 25.2741 40.551C25.3386 40.5726 25.414 40.5833 25.5001 40.5833C25.5862 40.5833 25.6616 40.5726 25.7261 40.551C25.7907 40.5295 25.8661 40.4757 25.9522 40.3896L41.8397 24.4374H33.2501C32.9189 24.4374 32.6093 24.3546 32.3211 24.189C32.033 24.0234 31.7929 23.8098 31.6008 23.5482L28.6597 19.0968Z" fill="#FF7E89"/>
</svg>
