<svg width="30" height="32" viewBox="0 0 30 32" fill="none" xmlns="http://www.w3.org/2000/svg">
<path d="M13.5938 25.0865H16.4062V16.6491H13.5938V25.0865ZM15 12.7549C15.4591 12.7549 15.8503 12.5932 16.1736 12.2699C16.4969 11.9466 16.6586 11.5554 16.6586 11.0962C16.6586 10.6371 16.4969 10.2459 16.1736 9.92257C15.8503 9.59923 15.4591 9.43756 15 9.43756C14.5408 9.43756 14.1496 9.59923 13.8263 9.92257C13.503 10.2459 13.3413 10.6371 13.3413 11.0962C13.3413 11.5554 13.503 11.9466 13.8263 12.2699C14.1496 12.5932 14.5408 12.7549 15 12.7549ZM0.9375 31.9375V10.8438L15 0.278931L29.0624 10.8438V31.9375H0.9375ZM3.74995 29.125H26.25V12.25L15 3.81251L3.74995 12.25V29.125Z" fill="#4EE39C"/>
</svg>
