<svg width="20" height="22" viewBox="0 0 20 22" fill="none" xmlns="http://www.w3.org/2000/svg">
<path d="M10 21.4286C11.375 21.4286 12.5 20.4396 12.5 19.2308H7.5C7.5 20.4396 8.625 21.4286 10 21.4286ZM17.5 14.8352V9.34066C17.5 5.96703 15.4625 3.14286 11.875 2.3956V1.64835C11.875 0.736264 11.0375 0 10 0C8.9625 0 8.125 0.736264 8.125 1.64835V2.3956C4.55 3.14286 2.5 5.95604 2.5 9.34066V14.8352L0 17.033V18.1319H20V17.033L17.5 14.8352ZM15 15.9341H5V9.34066C5 6.61538 6.8875 4.3956 10 4.3956C13.1125 4.3956 15 6.61538 15 9.34066V15.9341Z" fill="#00A759"/>
</svg>
