<svg width="46" height="44" viewBox="0 0 46 44" fill="none" xmlns="http://www.w3.org/2000/svg">
<path d="M16.0531 43.5L12.1648 36.9452L4.78212 35.3275L5.50281 27.7249L0.5 22L5.50281 16.2751L4.78212 8.67254L12.1648 7.05481L16.0531 0.5L23 3.45051L29.9469 0.5L33.8352 7.05481L41.2179 8.67254L40.4972 16.2751L45.5 22L40.4972 27.7249L41.2179 35.3275L33.8352 36.9452L29.9469 43.4999L23 40.5495L16.0531 43.4999V43.5ZM17.4441 39.3258L23 36.9704L28.6229 39.3258L31.7151 34.0954L37.7068 32.7207L37.1621 26.5766L41.1928 22L37.1621 17.3563L37.7068 11.2122L31.7151 9.90464L28.5559 4.67421L23 7.02959L17.3771 4.67421L14.2849 9.90464L8.29323 11.2122L8.83792 17.3563L4.80718 22L8.83792 26.5766L8.29323 32.7878L14.2849 34.0954L17.4441 39.3258ZM20.7123 28.9822L32.2682 17.4234L29.9721 15.0597L20.7123 24.3219L16.0279 19.7034L13.7318 22L20.7123 28.9822Z" fill="#F2CB56"/>
</svg>
