<svg width="20" height="22" viewBox="0 0 20 22" fill="none" xmlns="http://www.w3.org/2000/svg">
<path d="M6.00179 21.5385C5.45162 21.5385 4.98048 21.3274 4.58837 20.9052C4.19625 20.4831 4.00052 19.9762 4.00119 19.3846C4.00119 18.7923 4.19725 18.2851 4.58937 17.8629C4.98148 17.4408 5.45229 17.2301 6.00179 17.2308C6.55195 17.2308 7.02309 17.4418 7.41521 17.864C7.80732 18.2862 8.00305 18.793 8.00238 19.3846C8.00238 19.9769 7.80632 20.4842 7.41421 20.9063C7.02209 21.3285 6.55128 21.5392 6.00179 21.5385ZM16.0048 21.5385C15.4546 21.5385 14.9835 21.3274 14.5913 20.9052C14.1992 20.4831 14.0035 19.9762 14.0042 19.3846C14.0042 18.7923 14.2002 18.2851 14.5923 17.8629C14.9845 17.4408 15.4553 17.2301 16.0048 17.2308C16.5549 17.2308 17.0261 17.4418 17.4182 17.864C17.8103 18.2862 18.006 18.793 18.0054 19.3846C18.0054 19.9769 17.8093 20.4842 17.4172 20.9063C17.0251 21.3285 16.5543 21.5392 16.0048 21.5385ZM5.15153 4.30769L7.55225 9.69231H14.5543L17.3052 4.30769H5.15153ZM6.00179 16.1538C5.25156 16.1538 4.68473 15.7992 4.30128 15.0898C3.91783 14.3805 3.90116 13.6762 4.25127 12.9769L5.60167 10.3385L2.0006 2.15385H0.97529C0.691873 2.15385 0.45847 2.05046 0.275082 1.8437C0.0916939 1.63693 0 1.38134 0 1.07693C0 0.771798 0.0960286 0.51585 0.288086 0.30908C0.480143 0.102311 0.717547 -0.000714222 1.0003 3.72638e-06H2.62578C2.80917 3.72638e-06 2.98422 0.05385 3.15094 0.161542C3.31765 0.269235 3.44269 0.421799 3.52605 0.619234L4.20125 2.15385H18.9556C19.4058 2.15385 19.7142 2.33334 19.8809 2.69231C20.0476 3.05129 20.0393 3.42821 19.8559 3.82308L16.3049 10.7154C16.1215 11.0744 15.8797 11.3526 15.5796 11.55C15.2795 11.7474 14.9378 11.8462 14.5543 11.8462H7.10211L6.00179 14H17.0301C17.3135 14 17.5469 14.1034 17.7303 14.3102C17.9137 14.5169 18.0054 14.7725 18.0054 15.0769C18.0054 15.3821 17.9093 15.638 17.7173 15.8448C17.5252 16.0515 17.2878 16.1546 17.0051 16.1538H6.00179Z" fill="#00A759"/>
</svg>
