<svg width="44" height="44" viewBox="0 0 44 44" fill="none" xmlns="http://www.w3.org/2000/svg">
<path d="M22.3998 43.5C19.7937 43.1794 17.2053 42.4757 14.6349 41.389C12.0644 40.3023 9.75451 38.732 7.70518 36.6782C5.65589 34.6243 3.97604 32.0258 2.66562 28.8827C1.35515 25.7396 0.648105 21.9579 0.544466 17.5377L0.5 15.4193L2.54342 15.4644C4.32915 15.5094 6.2948 15.8423 8.44038 16.4628C10.586 17.0833 12.4968 17.9314 14.173 19.0072C14.5017 15.8581 15.3842 12.5872 16.8204 9.19468C18.2568 5.80214 19.9833 2.90391 22 0.5C24.0167 2.90391 25.7432 5.80966 27.1796 9.21724C28.6158 12.6248 29.4983 15.9031 29.827 19.0522C31.4587 18.0216 33.3326 17.1772 35.4486 16.5191C37.5645 15.861 39.5524 15.5094 41.4122 15.4644L43.5 15.4193L43.4555 17.5828C43.3963 21.5823 42.8114 25.0747 41.7009 28.0601C40.5904 31.0454 39.0919 33.58 37.2055 35.6639C35.3191 37.7478 33.1143 39.4268 30.5911 40.7009C28.068 41.975 25.3376 42.908 22.3998 43.5ZM22.3288 39.9122C21.9053 33.4276 20.0092 28.5251 16.6406 25.2047C13.2719 21.8843 9.08517 19.8334 4.08033 19.0521C4.50382 25.7321 6.45763 30.7127 9.94177 33.9941C13.4259 37.2754 17.5549 39.2481 22.3288 39.9122ZM22 26.5615C22.5479 25.642 23.232 24.6857 24.0523 23.6926C24.8726 22.6994 25.69 21.8558 26.5044 21.1616C26.457 18.8449 26.0387 16.4267 25.2494 13.907C24.4602 11.3874 23.3771 8.95266 22 6.60281C20.6229 8.95266 19.5398 11.3874 18.7506 13.907C17.9613 16.4267 17.543 18.8449 17.4956 21.1616C18.31 21.8558 19.1296 22.6994 19.9544 23.6926C20.7791 24.6857 21.461 25.642 22 26.5615ZM25.7935 38.9927C27.4105 38.4489 29.0186 37.6976 30.6178 36.739C32.217 35.7805 33.677 34.5184 34.9978 32.9529C36.3186 31.3873 37.4247 29.4672 38.3161 27.1924C39.2075 24.9177 39.742 22.2043 39.9197 19.0521C36.2416 19.599 32.9914 20.8761 30.1691 22.8834C27.3468 24.8907 25.2487 27.3968 23.8746 30.4017C24.3365 31.6518 24.7237 32.9664 25.0362 34.3456C25.3486 35.7249 25.601 37.2739 25.7935 38.9927Z" fill="#F2CB56"/>
</svg>
