<svg width="31" height="30" viewBox="0 0 31 30" fill="none" xmlns="http://www.w3.org/2000/svg">
<path d="M3.5 30C2.675 30 1.96875 29.7062 1.38125 29.1187C0.79375 28.5312 0.5 27.825 0.5 27V9C0.5 8.175 0.79375 7.46875 1.38125 6.88125C1.96875 6.29375 2.675 6 3.5 6H9.5V3C9.5 2.175 9.79375 1.46875 10.3812 0.88125C10.9687 0.29375 11.675 0 12.5 0H18.5C19.325 0 20.0313 0.29375 20.6188 0.88125C21.2063 1.46875 21.5 2.175 21.5 3V6H27.5C28.325 6 29.0312 6.29375 29.6187 6.88125C30.2062 7.46875 30.5 8.175 30.5 9V27C30.5 27.825 30.2062 28.5312 29.6187 29.1187C29.0312 29.7062 28.325 30 27.5 30H3.5ZM3.5 27H27.5V9H3.5V27ZM12.5 6H18.5V3H12.5V6ZM14 19.5V24H17V19.5H21.5V16.5H17V12H14V16.5H9.5V19.5H14Z" fill="#17A110"/>
</svg>
