<svg width="20" height="20" viewBox="0 0 20 20" fill="none" xmlns="http://www.w3.org/2000/svg">
<path d="M19.4416 10.4969L19.4416 10.497L19.4461 10.4993C19.4627 10.5079 19.4766 10.521 19.4861 10.5371C19.4956 10.5532 19.5004 10.5717 19.5 10.5904C19.4995 10.6091 19.4938 10.6273 19.4835 10.6429C19.4732 10.6586 19.4587 10.671 19.4417 10.6788L19.4417 10.6788L19.438 10.6805L0.646739 19.4885L0.646732 19.4885L0.643102 19.4902C0.627807 19.4975 0.610898 19.5008 0.593966 19.4998C0.577038 19.4988 0.560646 19.4935 0.546333 19.4844C0.53202 19.4753 0.520261 19.4627 0.512158 19.4478C0.504055 19.4329 0.499875 19.4162 0.50001 19.3993H0.500026V19.3953L0.500028 12.4721L0.500023 12.4706C0.499946 12.4454 0.509392 12.4211 0.526472 12.4025C0.543552 12.384 0.567007 12.3726 0.592139 12.3706L0.59445 12.3704L15.5981 11.1216L15.6186 10.1272L0.590002 8.24839L0.587963 8.24815C0.563582 8.2452 0.541141 8.23338 0.524921 8.21495C0.508701 8.19652 0.499835 8.17276 0.500013 8.14822H0.500026V8.14461V0.605492H0.500047L0.500004 0.600856C0.499843 0.583465 0.504224 0.566333 0.512715 0.551153C0.521205 0.535974 0.533512 0.523271 0.548419 0.514303C0.563327 0.505336 0.580318 0.500414 0.597712 0.500025C0.615107 0.499636 0.632301 0.503795 0.647594 0.512088L0.647586 0.512104L0.651358 0.514108L19.4416 10.4969Z" fill="#300FFF" stroke="#300FFF"/>
</svg>
