<svg width="39" height="48" viewBox="0 0 39 48" fill="none" xmlns="http://www.w3.org/2000/svg">
<path d="M19.4999 48.4495C14.0918 46.9419 9.61409 43.6874 6.06689 38.686C2.51969 33.6846 0.746094 28.0933 0.746094 21.912V7.20286L19.4999 0.0252686L38.2538 7.20286V21.912C38.2538 28.0933 36.4802 33.6846 32.933 38.686C29.3858 43.6874 24.9081 46.9419 19.4999 48.4495ZM19.4999 44.4085C23.8342 43.0025 27.4183 40.1904 30.2522 35.9723C33.0861 31.7542 34.5031 27.0675 34.5031 21.912V9.83297L19.4999 4.10563L4.49681 9.83297V21.912C4.49681 27.0675 5.91377 31.7542 8.7477 35.9723C11.5816 40.1904 15.1657 43.0025 19.4999 44.4085ZM14.547 33.996H24.4529C25.0933 33.996 25.63 33.7745 26.0632 33.3317C26.4964 32.8888 26.7129 32.3401 26.7129 31.6854V24.1145C26.7129 23.4598 26.4964 22.911 26.0632 22.4682C25.63 22.0253 25.0933 21.8039 24.4529 21.8039H24.2365V19.2475C24.2365 17.907 23.7789 16.7689 22.8636 15.8332C21.9483 14.8975 20.8352 14.4297 19.524 14.4297C18.2128 14.4297 17.0996 14.8975 16.1844 15.8332C15.2691 16.7689 14.8115 17.907 14.8115 19.2475V21.8039H14.547C13.9066 21.8039 13.3699 22.0253 12.9367 22.4682C12.5035 22.911 12.2869 23.4598 12.2869 24.1145V31.6854C12.2869 32.3401 12.5035 32.8888 12.9367 33.3317C13.3699 33.7745 13.9066 33.996 14.547 33.996ZM17.0235 21.8039V19.2475C17.0235 18.5232 17.2631 17.916 17.7424 17.426C18.2217 16.9361 18.8155 16.6911 19.524 16.6911C20.2325 16.6911 20.8264 16.9361 21.3056 17.426C21.7849 17.916 22.0245 18.5232 22.0245 19.2475V21.8039H17.0235Z" fill="#F2CB56"/>
</svg>
