<svg width="43" height="44" viewBox="0 0 43 44" fill="none" xmlns="http://www.w3.org/2000/svg">
<path d="M19.7084 34.5417C16.7223 34.5417 14.1841 33.4965 12.0938 31.4063C10.0035 29.316 8.95837 26.7778 8.95837 23.7917C8.95837 23.4632 8.9733 23.1347 9.00317 22.8063C9.03303 22.4778 9.07782 22.1493 9.13754 21.8209C8.98823 21.8806 8.80907 21.9254 8.60004 21.9552C8.39101 21.9851 8.21185 22 8.06254 22C6.80837 22 5.7483 21.567 4.88233 20.7011C4.01636 19.8351 3.58337 18.775 3.58337 17.5209C3.58337 16.2667 3.99396 15.2066 4.81514 14.3406C5.63633 13.4747 6.674 13.0417 7.92817 13.0417C8.91358 13.0417 9.80195 13.3179 10.5933 13.8703C11.3846 14.4228 11.9445 15.132 12.273 15.9979C13.2584 15.1021 14.3856 14.3854 15.6547 13.8479C16.9238 13.3104 18.275 13.0417 19.7084 13.0417H39.4167V20.2084H30.4584V23.7917C30.4584 26.7778 29.4132 29.316 27.323 31.4063C25.2327 33.4965 22.6945 34.5417 19.7084 34.5417ZM8.06254 19.3125C8.57018 19.3125 8.9957 19.1408 9.3391 18.7974C9.68251 18.454 9.85421 18.0285 9.85421 17.5209C9.85421 17.0132 9.68251 16.5877 9.3391 16.2443C8.9957 15.9009 8.57018 15.7292 8.06254 15.7292C7.5549 15.7292 7.12938 15.9009 6.78598 16.2443C6.44258 16.5877 6.27087 17.0132 6.27087 17.5209C6.27087 18.0285 6.44258 18.454 6.78598 18.7974C7.12938 19.1408 7.5549 19.3125 8.06254 19.3125ZM19.7084 30.0625C21.4403 30.0625 22.9184 29.4504 24.1427 28.2261C25.3671 27.0018 25.9792 25.5236 25.9792 23.7917C25.9792 22.0597 25.3671 20.5816 24.1427 19.3573C22.9184 18.133 21.4403 17.5209 19.7084 17.5209C17.9764 17.5209 16.4983 18.133 15.274 19.3573C14.0497 20.5816 13.4375 22.0597 13.4375 23.7917C13.4375 25.5236 14.0497 27.0018 15.274 28.2261C16.4983 29.4504 17.9764 30.0625 19.7084 30.0625ZM19.7084 27.375C20.6938 27.375 21.5374 27.0242 22.2391 26.3224C22.9408 25.6207 23.2917 24.7771 23.2917 23.7917C23.2917 22.8063 22.9408 21.9627 22.2391 21.261C21.5374 20.5592 20.6938 20.2084 19.7084 20.2084C18.723 20.2084 17.8794 20.5592 17.1776 21.261C16.4759 21.9627 16.125 22.8063 16.125 23.7917C16.125 24.7771 16.4759 25.6207 17.1776 26.3224C17.8794 27.0242 18.723 27.375 19.7084 27.375Z" fill="#69E862"/>
</svg>
